<?xml version="1.0" encoding="utf-8"?>
<!-- Generator: Adobe Illustrator 24.1.3, SVG Export Plug-In . SVG Version: 6.00 Build 0)  -->
<svg version="1.1" id="Layer_1" xmlns="http://www.w3.org/2000/svg" xmlns:xlink="http://www.w3.org/1999/xlink" x="0px" y="0px"
	 viewBox="0 0 100 100" style="enable-background:new 0 0 100 100;" xml:space="preserve">
<style type="text/css">
	.st0{fill:#FFFFFF;}
</style>
<path d="M75,100H25C11.2,100,0,88.8,0,75V25C0,11.2,11.2,0,25,0h50c13.8,0,25,11.2,25,25v50C100,88.8,88.8,100,75,100z"/>
<g>
	<path class="st0" d="M75,5c11,0,20,9,20,20v50c0,11-9,20-20,20H25C14,95,5,86,5,75V25C5,14,14,5,25,5H75 M75,0H25
		C11.2,0,0,11.2,0,25v50c0,13.8,11.2,25,25,25h50c13.8,0,25-11.2,25-25V25C100,11.2,88.8,0,75,0L75,0z"/>
</g>
<g>
	<path class="st0" d="M45.9,60.3v-3.8c0-1,0.1-1.9,0.2-2.6c0.1-0.7,0.3-1.3,0.6-1.9c0.3-0.6,0.7-1.1,1.2-1.6
		c0.5-0.5,1.1-1.1,1.7-1.9l5.3-5.3c1.1-1.1,1.7-2.6,1.7-4.4c0-1.8-0.6-3.2-1.7-4.3c-1.2-1.1-2.6-1.7-4.4-1.7c-1.9,0-3.5,0.6-4.7,1.9
		c-1.2,1.3-1.9,2.9-2.1,4.7l-8.7-0.7c0.3-2.2,0.8-4.1,1.7-5.8c0.9-1.7,2-3.2,3.4-4.3c1.4-1.2,3-2.1,4.8-2.7c1.8-0.6,3.8-0.9,6-0.9
		c2,0,4,0.3,5.7,0.9c1.8,0.6,3.3,1.4,4.6,2.6c1.3,1.1,2.3,2.5,3,4.2c0.7,1.7,1.1,3.6,1.1,5.7c0,1.5-0.2,2.8-0.6,4
		c-0.4,1.1-1,2.2-1.6,3.1c-0.7,1-1.5,1.9-2.4,2.7c-0.9,0.9-1.8,1.8-2.8,2.7c-0.6,0.6-1.2,1.1-1.6,1.6c-0.5,0.5-0.8,0.9-1.1,1.4
		c-0.3,0.5-0.5,1-0.6,1.6c-0.1,0.6-0.2,1.4-0.2,2.2v2.6H45.9z M44.5,69.8c0-1.5,0.5-2.7,1.6-3.8c1.1-1,2.4-1.6,3.9-1.6
		c1.5,0,2.7,0.5,3.8,1.5c1.1,1,1.6,2.2,1.6,3.7c0,1.5-0.5,2.7-1.6,3.8c-1.1,1-2.4,1.6-3.9,1.6c-0.7,0-1.4-0.1-2.1-0.4
		c-0.7-0.3-1.2-0.6-1.7-1.1c-0.5-0.5-0.9-1-1.2-1.6C44.7,71.2,44.5,70.5,44.5,69.8z"/>
</g>
</svg>
