<?xml version="1.0" encoding="utf-8"?>
<!-- Generator: Adobe Illustrator 27.0.0, SVG Export Plug-In . SVG Version: 6.00 Build 0)  -->
<svg version="1.1" id="Layer_1" xmlns="http://www.w3.org/2000/svg" xmlns:xlink="http://www.w3.org/1999/xlink" x="0px" y="0px"
	 viewBox="0 0 196.1 198.6" style="enable-background:new 0 0 196.1 198.6;" xml:space="preserve">
<style type="text/css">
	.st0{fill:#099349;}
</style>
<g>
	<g>
		<path class="st0" d="M120.4,45c1.2-1.9,1.3-3,0.3-4c-0.8-0.8-2.2-1-3.2-0.4c-1.1,0.7-1.5,2.1-0.9,3.2
			C117.1,45.2,118.1,45.5,120.4,45z"/>
		<path class="st0" d="M56.4,119.2c1.9-1.8,3.4-4,5.3-5.9c3.4-3.5,6.9-7,10.8-10.9c2.6-6.2,3.6-7,8.7-6.1c0.9-0.9,1.9-1.8,2.8-2.8
			c8.3-9.3,15.4-19.5,21.8-30.2c2.7-4.6,5.3-9.3,7.8-14c0.6-1.1,1.2-2.4,0.5-3.7c0,0,0,0,0,0l0,0.1c0,0,0,0,0,0
			c-0.6,1.8-1.2,3.5-1.8,5.3c-0.2,0-0.3,0-0.5,0c-0.3-1.4-0.7-2.7-1-4.1c-0.4-2.1,0.2-2.7,2.5-3.4c0.3,0.8,0.5,1.5,0.8,2.3
			c0,0,0,0,0-0.1c0,0,0,0,0,0c0.1-1,0.2-1.9,0.2-2.9c0.1-1.7,0.7-3,1.8-3.7c-5.6-1.5-11.5-2.3-17.6-2.3c-38.2,0-69.2,31-69.2,69.2
			c0,9.5,1.9,18.6,5.4,26.9c1.4-0.7,2.9-1.4,4.3-2.2C45.2,127.4,51.3,123.9,56.4,119.2z M72,100.5c0,2.6-2.3,3.4-3.8,5.2
			C68.7,102.7,69.7,101.4,72,100.5z"/>
		<path class="st0" d="M123.9,41.5c0.3,1.1,0,2.3-0.9,3.6c-4.1,5.8-8.4,11.6-12.3,17.5c-7.9,12-14.7,24.5-19.7,38
			c-1.7,4.4-2.7,9.1-3.9,13.7c-0.2,0.9-0.1,1.8-0.1,2.7l0,0l0,0c1.1,1.3,2.2,2.5,3.3,3.8c-0.1,0.2-0.1,0.3-0.2,0.5
			c-0.9,0-1.9,0-2.8-0.1c-0.1-1.5-0.2-2.9-0.3-4.2l0,0c-0.2,0.4-0.5,0.8-0.5,1.2c0.1,2.9,0,5.8,0.5,8.6c1,5.3,4.6,8.3,10,8.9
			c5.1,0.6,9.9-0.4,14.7-1.9c8.6-2.6,16.6-6.5,24.5-10.7c2.3-1.2,4.6-2.5,7-3.6c-0.5,0.5-1,1.1-1.6,1.6
			c-9.1,7.5-18.8,14.1-29.4,19.2c-7.1,3.5-14.5,6.1-22.3,7.1c-0.4,0-0.8,0.1-1.2,0.1c-0.3,0-0.6,0.1-0.9,0.1c-0.5,0-1.1,0.1-1.6,0.1
			c-0.6,0-1.2,0-1.9,0.1c-3.7,0.1-7.3-0.2-10.9-1.3c-2.9-0.9-5.5-2.2-7.3-4.7c-1.8-2.4-1.7-4.9-0.5-7.7c-3.3,3.4-2.6,8.3,0.1,10.8
			c2.3,2.1,4.9,3.6,7.9,4.4c3.3,1,6.7,1.6,10,1.7h0c1.3,0,2.7,0,4-0.2h0c0,0.1,0.1,0.1,0.1,0.2c0,0.2-0.1,0.4-0.1,0.7
			c-0.1,0.4-0.1,0.8-0.1,1.2c0,0.1,0,0.2,0,0.3c-0.1,1.1-0.1,2.2,0,3.3c-2.1,1.7-4.5,3.4-7,4.9c-1.7,1-3.6,2-5.4,2.9
			c-1.9,0.9-3.8,1.7-5.7,2.3c-0.9,0.3-1.8,0.6-2.6,0.8c9.5,5,20.4,7.8,31.8,7.8c38.2,0,69.2-31,69.2-69.2
			C167.7,76.6,149.6,51.6,123.9,41.5z M123.8,46.1c1.4,2,2.5,3.7,3.7,5.5c-0.1,0.2-0.3,0.3-0.4,0.5c-1.9-0.6-3.8-1.3-6.1-2.1
			C122,48.6,122.8,47.5,123.8,46.1z M120.5,50.6c2.4,1.6,3.1,3.9,4.8,6.4c-2.8-0.4-5.1-1.1-7.5-2.4C118.7,53.3,119.5,52,120.5,50.6z
			 M117.1,55.4c2.3,1.5,3.1,3.9,4.3,5.9c-0.1,0.2-0.2,0.3-0.3,0.5c-2.2-0.7-4.4-1.4-7-2.3C115.3,57.9,116.1,56.8,117.1,55.4z
			 M113.7,60.3c1.7,2.3,3.1,4.2,4.8,6.4c-2.7-0.1-4.9-0.7-7.3-1.9C111.9,63.3,112.7,62,113.7,60.3z M110.4,65.7
			c2.2,1.5,3.2,3.7,4.6,5.6c-1.9,0.5-4.5-0.1-7.2-1.7C108.7,68.2,109.5,67,110.4,65.7z M107.3,70.3c1.6,2.1,3,4,4.5,6.1
			c-2.6,0.2-4.8-0.6-7.2-1.6C105.5,73.2,106.3,71.9,107.3,70.3z M104.1,75.6c1.9,2.1,3.8,3.5,4.9,6.2c-2.6-0.2-4.9-0.6-7.4-1.6
			C102.4,78.7,103.1,77.4,104.1,75.6z M101.2,80.8c1.9,2.1,3.5,3.8,5.4,6c-3,0.2-5.2-0.4-7.8-1.2C99.6,84,100.3,82.6,101.2,80.8z
			 M95.9,92.1c1.8,2.1,3.3,3.8,5.1,5.8c-2.8,0.3-5-0.2-7.5-1.1C94.2,95.4,94.9,94.1,95.9,92.1z M87.7,115.2c0.3-1.6,0.6-3,1-4.6
			c2,1.1,2.9,2.8,4.3,4.9C91,115.4,89.5,115.3,87.7,115.2z M89.3,108.5c0.5-1.4,0.9-2.7,1.4-4.3c1.9,1.5,3.5,2.9,4.5,5.1
			C93,109.6,91.3,109.1,89.3,108.5z M91.2,102.9c0.7-1.8,1.2-3.2,1.8-4.8c2.4,1.3,3.8,3.3,5.2,5.3c-0.1,0.2-0.1,0.3-0.2,0.5
			C95.8,103.6,93.6,103.3,91.2,102.9z M97.6,134.9c0-2.3,0.1-4.1,0.1-6c0.2-0.1,0.4-0.2,0.5-0.2c1.5,1.8,3.1,3.7,5,5.9
			C101,134.7,99.5,134.8,97.6,134.9z M96.2,91.2c0.8-1.7,1.5-3.1,2.4-5.1c1.9,2.1,3.6,3.9,5.2,5.7c-0.1,0.2-0.2,0.4-0.3,0.6
			C101.2,92,98.9,91.7,96.2,91.2z M103.8,134.4c0-2.5-0.1-4.6-0.1-6.8c0.2-0.1,0.4-0.1,0.6-0.2c1.5,1.8,3.1,3.5,4.7,5.4
			C107.4,134.1,105.8,134.1,103.8,134.4z M110,133c-0.2-2.6-0.4-4.9-0.5-7.1c0.3-0.1,0.5-0.2,0.8-0.3c1.6,1.8,3.2,3.5,5,5.5
			C113.3,131.8,111.9,132.3,110,133z M116.6,130.7c-1-2.5-1.2-4.9-0.9-7.5c2.2,1.6,3.8,3.4,5.4,5.6
			C119.5,129.5,118.1,130.1,116.6,130.7z M122.5,128.3c-1.2-2.5-1.2-4.8-1.3-7.6c2.3,1.5,4,3,5.4,5.4
			C125.2,126.9,123.9,127.6,122.5,128.3z M127.7,125.9c-0.4-2.9-0.8-5.3-1.1-7.6c0.2-0.1,0.3-0.2,0.5-0.3c1.7,1.6,3.4,3.3,5.5,5.3
			C130.9,124.2,129.6,124.9,127.7,125.9z M133.2,123.3c-0.5-2.8-0.9-5.1-1.3-7.9c2.6,1.3,4.1,3.1,5.7,4.9
			C136.6,122,134.8,122,133.2,123.3z M139,120.2c-1.5-2.3-1.5-4.7-1.8-7.6c2.2,1.8,4.3,2.9,5.7,5.5
			C141.5,118.8,140.3,119.5,139,120.2z"/>
		<path class="st0" d="M82.1,101.2c-0.2-2.5-1.4-3.5-4.1-3.3c0.3,1.2,0.7,2.5,1.1,3.8c-1.4-0.9-2.5-1.6-3.7-2.4
			c-1.6,2.4-0.3,4.1,0.7,5.9C78.1,103.8,80,102.5,82.1,101.2z"/>
	</g>
</g>
</svg>
