<?xml version="1.0" encoding="utf-8"?>
<!-- Generator: Adobe Illustrator 24.3.0, SVG Export Plug-In . SVG Version: 6.00 Build 0)  -->
<svg version="1.1" id="Layer_1" xmlns="http://www.w3.org/2000/svg" xmlns:xlink="http://www.w3.org/1999/xlink" x="0px" y="0px"
	 viewBox="0 0 20 20" style="enable-background:new 0 0 20 20;" xml:space="preserve">
<style type="text/css">
	.st0{fill:#FFFFFF;}
</style>
<g>
	<path class="st0" d="M18,0H2C0.9,0,0,0.9,0,2v16c0,1.1,0.9,2,2,2h16c1.1,0,2-0.9,2-2V2C20,0.9,19.1,0,18,0L18,0z"/>
</g>
<path d="M20,5.2L20,2c0-1.1-0.9-2-2-2c0,0-3.2,0-3.2,0L2.1,12.7l0.5,4.7l4.7,0.5C7.3,17.9,20,5.2,20,5.2z"/>
</svg>
