<?xml version="1.0" encoding="utf-8"?>
<!-- Generator: Adobe Illustrator 25.2.1, SVG Export Plug-In . SVG Version: 6.00 Build 0)  -->
<svg version="1.1" id="Layer_1" xmlns="http://www.w3.org/2000/svg" xmlns:xlink="http://www.w3.org/1999/xlink" x="0px" y="0px"
	 viewBox="0 0 50 50" style="enable-background:new 0 0 50 50;" xml:space="preserve">
<style type="text/css">
	.st0{fill:#6020FF;}
	.st1{fill:#FFFFFF;}
</style>
<path class="st0" d="M45,50H5c-2.8,0-5-2.2-5-5V5c0-2.8,2.2-5,5-5h40c2.8,0,5,2.2,5,5v40C50,47.8,47.8,50,45,50z"/>
<path class="st1" d="M257.1-281.2"/>
<g>
	<g>
		<circle cx="25" cy="15.8" r="5"/>
		<g>
			<path d="M25,14.1c0.9,0,1.7,0.8,1.7,1.7c0,0.9-0.8,1.7-1.7,1.7s-1.7-0.8-1.7-1.7C23.3,14.9,24.1,14.1,25,14.1 M25,7.5
				c-4.6,0-8.3,3.7-8.3,8.3s3.7,8.3,8.3,8.3s8.3-3.7,8.3-8.3S29.6,7.5,25,7.5L25,7.5z"/>
		</g>
	</g>
	<g>
		<g>
			<path d="M14.4,39.2c-2.8,0-5-2.2-5-5s2.2-5,5-5c2.8,0,5,2.2,5,5S17.2,39.2,14.4,39.2z"/>
			<g>
				<path d="M14.4,32.5c0.9,0,1.7,0.8,1.7,1.7c0,0.9-0.8,1.7-1.7,1.7s-1.7-0.8-1.7-1.7C12.7,33.2,13.5,32.5,14.4,32.5 M14.4,25.9
					c-4.6,0-8.3,3.7-8.3,8.3s3.7,8.3,8.3,8.3s8.3-3.7,8.3-8.3S19,25.9,14.4,25.9L14.4,25.9z"/>
			</g>
		</g>
		<g>
			<circle cx="35.6" cy="34.2" r="5"/>
			<g>
				<path d="M35.6,32.5c0.9,0,1.7,0.8,1.7,1.7c0,0.9-0.8,1.7-1.7,1.7s-1.7-0.8-1.7-1.7C33.9,33.2,34.7,32.5,35.6,32.5 M35.6,25.9
					c-4.6,0-8.3,3.7-8.3,8.3s3.7,8.3,8.3,8.3s8.3-3.7,8.3-8.3S40.2,25.9,35.6,25.9L35.6,25.9z"/>
			</g>
		</g>
	</g>
</g>
</svg>
