<?xml version="1.0" encoding="utf-8"?>
<!-- Generator: Adobe Illustrator 24.3.0, SVG Export Plug-In . SVG Version: 6.00 Build 0)  -->
<svg version="1.1" id="Layer_1" xmlns="http://www.w3.org/2000/svg" xmlns:xlink="http://www.w3.org/1999/xlink" x="0px" y="0px"
	 viewBox="0 0 50 50" style="enable-background:new 0 0 50 50;" xml:space="preserve">
<style type="text/css">
	.st0{fill:#4040FF;}
	.st1{fill:#FFFFFF;}
</style>
<g id="pjAzkC_1_">
	<g>
		<path class="st0" d="M24.9,46.7c-1.5-3-2.9-5.9-4.3-8.9c-1.1-2.5-2.2-5-3.2-7.6C16,26.6,14.7,22.8,14,19c-0.3-1.7-0.5-3.5-0.4-5.3
			c0.2-2.3,1-4.3,2.4-6c1.8-2.2,4.1-3.6,7-4.1c2.8-0.5,5.5-0.1,8,1.4c3,1.8,4.8,4.5,5.4,8.1c0.2,1.4,0.1,2.8-0.1,4.2
			c-0.8,5.6-2.8,10.9-5,16.1c-1.7,4.2-3.7,8.2-5.8,12.3C25.3,46,25.2,46.3,24.9,46.7z M31.2,14.9c0.1-3.3-2.7-6.3-6.2-6.3
			c-3.4,0-6.2,2.8-6.2,6.3c0,3.2,2.5,6.1,6.2,6.1C28.6,21.1,31.3,18.1,31.2,14.9z"/>
	</g>
</g>
<path class="st1" d="M257.1-281.2"/>
</svg>
