<?xml version="1.0" encoding="utf-8"?>
<!-- Generator: Adobe Illustrator 26.0.3, SVG Export Plug-In . SVG Version: 6.00 Build 0)  -->
<svg version="1.1" id="Layer_1" xmlns="http://www.w3.org/2000/svg" xmlns:xlink="http://www.w3.org/1999/xlink" x="0px" y="0px"
	 viewBox="0 0 120 180" style="enable-background:new 0 0 120 180;" xml:space="preserve">
<style type="text/css">
	.st0{fill:#FFFFFF;}
</style>
<rect width="120" height="180"/>
<path class="st0" d="M0,119.9h14.7l19.1,32.7v-32.7h14.8v59H33.8l-19-32.4v32.4H0V119.9z"/>
<path class="st0" d="M67.7,98.4l26.1,4.7c-1.8,4.4-4.5,8.1-8.3,11c-3.8,3-8.5,5.2-14,6.7c-5.6,1.5-12.7,2.3-21.3,2.3
	c-10.5,0-19-0.9-25.7-2.7c-6.6-1.8-12.4-5.1-17.2-9.7S0.1,100.2,0.1,93c0-9.6,4.2-17,12.7-22.1c8.5-5.2,20.5-7.7,36-7.7
	c12.1,0,21.7,1.5,28.6,4.4c6.9,3,12.1,7.5,15.5,13.6l-26.3,3.5c-0.9-1.8-1.9-3.1-2.9-3.9c-1.7-1.4-3.7-2.4-6.1-3.2
	c-2.4-0.7-5.1-1.1-8.1-1.1c-6.8,0-11.9,1.6-15.5,4.9c-2.7,2.4-4.1,6.2-4.1,11.4c0,6.4,1.6,10.8,4.9,13.2c3.2,2.4,7.8,3.6,13.7,3.6
	c5.7,0,10-1,12.9-2.9C64.2,104.9,66.4,102.1,67.7,98.4z"/>
<path class="st0" d="M104.9,64.2H120v58h-15.1V64.2z"/>
<g>
	<path class="st0" d="M56,131.1h10.6v23.4c1-1.1,2.2-1.9,3.6-2.5c1.3-0.6,2.8-0.8,4.4-0.8c3.3,0,6.1,1.2,8.3,3.6
		c2.2,2.4,3.3,5.9,3.3,10.4c0,3-0.5,5.7-1.5,8c-1,2.3-2.4,4-4.1,5.1c-1.8,1.1-3.7,1.7-5.9,1.7c-1.8,0-3.5-0.4-5.1-1.2
		c-1.2-0.6-2.4-1.8-3.8-3.5v4.1H56V131.1z M66.5,165.5c0,2.4,0.4,4.1,1.3,5.2c0.9,1.1,2,1.6,3.4,1.6c1.3,0,2.3-0.5,3.2-1.6
		s1.3-2.8,1.3-5.3c0-2.2-0.4-3.8-1.2-4.8c-0.8-1-1.8-1.5-3-1.5c-1.4,0-2.6,0.5-3.5,1.6C67,161.7,66.5,163.3,66.5,165.5z"/>
	<path class="st0" d="M120,131.1v48.3h-9.8v-4.1c-1.4,1.7-2.6,2.9-3.8,3.5c-1.5,0.8-3.2,1.2-5.1,1.2c-3.7,0-6.6-1.4-8.5-4.3
		c-2-2.9-3-6.3-3-10.4c0-4.6,1.1-8.1,3.3-10.5c2.2-2.4,4.9-3.6,8.3-3.6c1.6,0,3.1,0.3,4.4,0.8c1.3,0.6,2.5,1.4,3.5,2.5v-23.4H120z
		 M109.5,165.5c0-2.2-0.5-3.8-1.4-4.8s-2.1-1.6-3.5-1.6c-1.2,0-2.2,0.5-3.1,1.5c-0.8,1-1.2,2.7-1.2,5.1c0,2.3,0.4,3.9,1.3,4.9
		c0.9,1,1.9,1.6,3.2,1.6c1.3,0,2.5-0.5,3.4-1.6C109,169.6,109.5,167.9,109.5,165.5z"/>
</g>
<circle class="st0" cx="10.2" cy="10.2" r="10.2"/>
<circle class="st0" cx="41.2" cy="20.5" r="10.2"/>
<g>
	<path class="st0" d="M73.7,5.8c3.4,0,6.2,2.8,6.2,6.2s-2.8,6.2-6.2,6.2s-6.2-2.8-6.2-6.2S70.3,5.8,73.7,5.8 M73.7,1.8
		c-5.7,0-10.2,4.6-10.2,10.2c0,5.7,4.6,10.2,10.2,10.2S84,17.7,84,12.1C84,6.4,79.4,1.8,73.7,1.8L73.7,1.8z"/>
</g>
<g>
	<path class="st0" d="M93.8,27.9c3.4,0,6.2,2.8,6.2,6.2s-2.8,6.2-6.2,6.2s-6.2-2.8-6.2-6.2S90.4,27.9,93.8,27.9 M93.8,23.9
		c-5.7,0-10.2,4.6-10.2,10.2c0,5.7,4.6,10.2,10.2,10.2S104,39.8,104,34.2C104,28.5,99.5,23.9,93.8,23.9L93.8,23.9z"/>
</g>
<g>
	<path class="st0" d="M109.5,4c3.4,0,6.2,2.8,6.2,6.2s-2.8,6.2-6.2,6.2s-6.2-2.8-6.2-6.2S106,4,109.5,4 M109.5,0
		c-5.7,0-10.2,4.6-10.2,10.2c0,5.7,4.6,10.2,10.2,10.2c5.7,0,10.2-4.6,10.2-10.2C119.7,4.6,115.1,0,109.5,0L109.5,0z"/>
</g>
<g>
	<path class="st0" d="M61.7,34.7c3.4,0,6.2,2.8,6.2,6.2s-2.8,6.2-6.2,6.2s-6.2-2.8-6.2-6.2S58.3,34.7,61.7,34.7 M61.7,30.7
		c-5.7,0-10.2,4.6-10.2,10.2c0,5.7,4.6,10.2,10.2,10.2S72,46.6,72,41C72,35.3,67.4,30.7,61.7,30.7L61.7,30.7z"/>
</g>
<circle class="st0" cx="18.1" cy="37.6" r="10.2"/>
</svg>
