<?xml version="1.0" encoding="utf-8"?>
<!-- Generator: Adobe Illustrator 26.0.3, SVG Export Plug-In . SVG Version: 6.00 Build 0)  -->
<svg version="1.1" id="Layer_1" xmlns="http://www.w3.org/2000/svg" xmlns:xlink="http://www.w3.org/1999/xlink" x="0px" y="0px"
	 viewBox="0 0 120 180" style="enable-background:new 0 0 120 180;" xml:space="preserve">
<style type="text/css">
	.st0{fill:#FFFFFF;}
</style>
<rect width="120" height="180"/>
<path class="st0" d="M0,120.1h36.4c7.9,0,13.9,1.6,17.8,4.7c4,3.1,5.9,7.6,5.9,13.4c0,6-2.2,10.6-6.5,14c-4.3,3.4-10.8,5-19.7,5H22
	v21.9H0V120.1z M22,145.3h5.3c4.2,0,7.2-0.6,8.9-1.8c1.7-1.2,2.6-2.8,2.6-4.7c0-1.9-0.7-3.4-2.2-4.7s-4.3-1.9-8.3-1.9H22V145.3z"/>
<path class="st0" d="M0,64.4h12.2L28.1,97V64.4h12.3v58.9H28.1L12.3,91v32.4H0V64.4z"/>
<path class="st0" d="M48.4,64.4h11.9v14.8c1.2-1.2,2.5-2.2,4-2.8c1.5-0.6,3.1-0.9,4.9-0.9c3.7,0,6.8,1.4,9.3,4.1s3.7,6.6,3.7,11.6
	c0,3.4-0.6,6.3-1.7,8.9c-1.1,2.6-2.7,4.5-4.6,5.8c-2,1.3-4.2,1.9-6.6,1.9c-2.1,0-3.9-0.4-5.7-1.3c-1.3-0.7-2.7-2-4.2-3.9v4.6h-11
	V64.4z M60.2,91.5c0,2.7,0.5,4.6,1.5,5.8c1,1.2,2.2,1.8,3.8,1.8c1.4,0,2.6-0.6,3.5-1.8c1-1.2,1.4-3.1,1.4-5.9c0-2.4-0.5-4.2-1.4-5.4
	c-0.9-1.1-2.1-1.7-3.4-1.7c-1.6,0-2.9,0.6-3.9,1.8S60.2,89.1,60.2,91.5z"/>
<path class="st0" d="M120,64.4V107h-11v-4.6c-1.5,1.9-2.9,3.2-4.2,3.9c-1.7,0.9-3.6,1.3-5.7,1.3c-4.2,0-7.4-1.6-9.6-4.8
	c-2.2-3.2-3.3-7.1-3.3-11.7c0-5.1,1.2-9,3.6-11.7s5.5-4.1,9.3-4.1c1.8,0,3.5,0.3,5,0.9c1.5,0.6,2.8,1.6,4,2.8V64.4H120z M108.2,91.5
	c0-2.4-0.5-4.2-1.5-5.4c-1-1.2-2.3-1.8-3.9-1.8c-1.4,0-2.5,0.6-3.4,1.7c-0.9,1.1-1.4,3.1-1.4,5.8c0,2.5,0.5,4.4,1.4,5.5
	c1,1.2,2.1,1.8,3.5,1.8c1.5,0,2.8-0.6,3.8-1.8C107.7,96.1,108.2,94.2,108.2,91.5z"/>
<path class="st0" d="M109,130v13.6h10.3v10H109v12.6c0,1.5,0.2,2.5,0.6,3c0.6,0.8,1.7,1.1,3.2,1.1c1.4,0,3.3-0.3,5.8-0.9l1.4,9.4
	c-4.6,0.7-8.9,1.1-12.9,1.1c-4.6,0-8.1-0.4-10.3-1.3c-2.2-0.9-3.8-2.2-4.9-4c-1.1-1.8-1.6-4.7-1.6-8.6v-12.5h-6.9v-10h6.9V137
	L109,130z"/>
<g>
	<path class="st0" d="M61.6,161.8l-9.6-1c0.4-1.7,0.9-3,1.6-3.9c0.7-1,1.7-1.8,2.9-2.5c0.9-0.5,2.2-0.9,3.8-1.2
		c1.6-0.3,3.3-0.4,5.2-0.4c3,0,5.4,0.2,7.2,0.5c1.8,0.3,3.3,1,4.5,2.1c0.9,0.7,1.5,1.8,2,3.1c0.5,1.4,0.7,2.6,0.7,3.9v11.5
		c0,1.2,0.1,2.2,0.2,2.9c0.2,0.7,0.5,1.6,1,2.7h-9.4c-0.4-0.7-0.6-1.2-0.7-1.5c-0.1-0.4-0.2-0.9-0.3-1.7c-1.3,1.3-2.6,2.2-3.9,2.7
		c-1.8,0.7-3.8,1.1-6.2,1.1c-3.1,0-5.5-0.7-7.1-2.2c-1.6-1.4-2.4-3.2-2.4-5.3c0-2,0.6-3.6,1.7-4.9c1.2-1.3,3.3-2.2,6.4-2.8
		c3.8-0.8,6.2-1.3,7.3-1.6c1.1-0.3,2.3-0.7,3.5-1.2c0-1.2-0.3-2.1-0.8-2.6c-0.5-0.5-1.4-0.7-2.7-0.7c-1.6,0-2.9,0.3-3.7,0.8
		C62.5,159.9,62,160.6,61.6,161.8z M70.3,167c-1.4,0.5-2.8,0.9-4.3,1.3c-2,0.5-3.3,1.1-3.9,1.6c-0.6,0.5-0.8,1.2-0.8,1.8
		c0,0.8,0.3,1.4,0.8,1.9c0.5,0.5,1.4,0.7,2.4,0.7c1.1,0,2.1-0.3,3.1-0.8c1-0.5,1.6-1.2,2-2c0.4-0.8,0.6-1.8,0.6-3V167z"/>
</g>
<g>
	<path class="st0" d="M21,30.3c3.4,0,6.2,2.8,6.2,6.2s-2.8,6.2-6.2,6.2s-6.2-2.8-6.2-6.2S17.6,30.3,21,30.3 M21,26.3
		c-5.7,0-10.2,4.6-10.2,10.2c0,5.7,4.6,10.2,10.2,10.2s10.2-4.6,10.2-10.2C31.3,30.8,26.7,26.3,21,26.3L21,26.3z"/>
</g>
<g>
	<path class="st0" d="M10.2,4c3.4,0,6.2,2.8,6.2,6.2s-2.8,6.2-6.2,6.2S4,13.7,4,10.2S6.8,4,10.2,4 M10.2,0C4.6,0,0,4.6,0,10.2
		c0,5.7,4.6,10.2,10.2,10.2c5.7,0,10.2-4.6,10.2-10.2C20.5,4.6,15.9,0,10.2,0L10.2,0z"/>
</g>
<g>
	<path class="st0" d="M40.4,9.8c3.4,0,6.2,2.8,6.2,6.2s-2.8,6.2-6.2,6.2s-6.2-2.8-6.2-6.2S37,9.8,40.4,9.8 M40.4,5.8
		c-5.7,0-10.2,4.6-10.2,10.2s4.6,10.2,10.2,10.2S50.7,21.7,50.7,16S46.1,5.8,40.4,5.8L40.4,5.8z"/>
</g>
<g>
	<g>
		<path class="st0" d="M109.8,4c3.4,0,6.2,2.8,6.2,6.2s-2.8,6.2-6.2,6.2s-6.2-2.8-6.2-6.2S106.3,4,109.8,4 M109.8,0
			c-5.7,0-10.2,4.6-10.2,10.2c0,5.7,4.6,10.2,10.2,10.2c5.7,0,10.2-4.6,10.2-10.2C120,4.6,115.4,0,109.8,0L109.8,0z"/>
	</g>
	<g>
		<path class="st0" d="M98.4,30.3c3.4,0,6.2,2.8,6.2,6.2s-2.8,6.2-6.2,6.2s-6.2-2.8-6.2-6.2S94.9,30.3,98.4,30.3 M98.4,26.3
			c-5.7,0-10.2,4.6-10.2,10.2c0,5.7,4.6,10.2,10.2,10.2c5.7,0,10.2-4.6,10.2-10.2C108.6,30.8,104,26.3,98.4,26.3L98.4,26.3z"/>
	</g>
	<g>
		<path class="st0" d="M77.6,11.3c3.4,0,6.2,2.8,6.2,6.2s-2.8,6.2-6.2,6.2c-3.4,0-6.2-2.8-6.2-6.2S74.1,11.3,77.6,11.3 M77.6,7.3
			c-5.7,0-10.2,4.6-10.2,10.2c0,5.7,4.6,10.2,10.2,10.2c5.7,0,10.2-4.6,10.2-10.2C87.8,11.9,83.2,7.3,77.6,7.3L77.6,7.3z"/>
	</g>
</g>
</svg>
