<?xml version="1.0" encoding="utf-8"?>
<!-- Generator: Adobe Illustrator 26.0.3, SVG Export Plug-In . SVG Version: 6.00 Build 0)  -->
<svg version="1.1" id="Layer_1" xmlns="http://www.w3.org/2000/svg" xmlns:xlink="http://www.w3.org/1999/xlink" x="0px" y="0px"
	 viewBox="0 0 120 180" style="enable-background:new 0 0 120 180;" xml:space="preserve">
<style type="text/css">
	.st0{display:none;}
	.st1{fill:#FFFFFF;}
</style>
<rect width="120" height="180"/>
<circle class="st0" cx="60" cy="90" r="100"/>
<path class="st1" d="M0,158.1l20.8-1.2c0.4,3,1.4,5.3,2.7,6.8c2.3,2.5,5.4,3.8,9.7,3.8c3.2,0,5.5-0.7,7.2-2c1.6-1.3,2.5-2.8,2.5-4.6
	c0-1.6-0.8-3-2.4-4.3s-5.3-2.5-11.2-3.7c-9.6-2-16.4-4.5-20.4-7.6c-4.1-3.2-6.2-7.3-6.2-12.2c0-3.3,1.1-6.3,3.2-9.1
	c2.1-2.9,5.2-5.1,9.5-6.8c4.2-1.6,10-2.5,17.4-2.5c9,0,15.9,1.5,20.6,4.5c4.8,3,7.5,7.7,8.5,14.3l-20.5,1.1
	c-0.5-2.8-1.7-4.9-3.5-6.2c-1.7-1.3-4.1-2-7.3-2c-2.5,0-4.5,0.4-5.8,1.4c-1.3,1-2,2.2-2,3.5c0,1,0.5,2,1.6,2.7
	c1,0.9,3.5,1.6,7.3,2.3c9.6,1.8,16.3,3.7,20.4,5.5c4.1,1.8,7.2,4.2,9,7c1.8,2.8,2.8,5.9,2.8,9.3c0,4-1.3,7.8-3.8,11.2
	c-2.5,3.4-6,6-10.5,7.7c-4.5,1.7-10.1,2.6-16.9,2.6c-12,0-20.3-2.1-24.9-6.2S0.7,164.5,0,158.1z"/>
<path class="st1" d="M120,164.5H88.9c0.3,2.2,0.9,3.9,2,5c1.5,1.6,3.4,2.3,5.9,2.3c1.6,0,3-0.3,4.3-1c0.9-0.4,1.7-1.2,2.7-2.3
	l15.3,1.3c-2.3,3.6-5.2,6.2-8.4,7.8c-3.3,1.6-8,2.4-14.2,2.4c-5.3,0-9.6-0.7-12.7-2.1c-3.1-1.4-5.6-3.5-7.7-6.5c-2-2.9-3-6.4-3-10.4
	c0-5.7,2.1-10.3,6.1-13.7c4-3.5,9.6-5.3,16.8-5.3c5.8,0,10.3,0.8,13.7,2.3c3.4,1.6,5.9,3.9,7.7,6.8c1.7,3,2.7,6.9,2.7,11.6V164.5z
	 M104.2,157.9c-0.3-2.7-1.1-4.6-2.4-5.8c-1.3-1.1-3-1.7-5.2-1.7c-2.5,0-4.5,0.9-5.9,2.6c-0.9,1.1-1.6,2.8-1.8,4.9H104.2z"/>
<path class="st1" d="M52.5,64h12.2v38H52.5V64z"/>
<path class="st1" d="M73.1,64H83v4.9c1.4-2.1,2.9-3.6,4.3-4.4s3.2-1.3,5.2-1.3c2.2,0,4,0.5,5.2,1.5c1.3,1,2.3,2.4,3.2,4.3
	c1.6-2.2,3.2-3.7,4.5-4.5s3.1-1.2,5.1-1.2c3,0,5.2,1.1,7,3.2c1.6,2.2,2.5,5.6,2.5,10.2v31.9h-10.7V78.6c0-1.5-0.3-2.7-0.7-3.4
	c-0.7-1.2-1.6-1.8-2.6-1.8c-1.3,0-2.3,0.6-3,1.7c-0.7,1.1-1.2,2.9-1.2,5.3v28.1H91.2V79.3c0-1.5-0.1-2.5-0.2-3.1
	c-0.3-0.9-0.6-1.5-1.2-2.1c-0.5-0.5-1.2-0.8-2-0.8c-1.3,0-2.3,0.6-3,1.7c-0.8,1.1-1.2,3-1.2,5.6v27.9H73.1
	C73.1,108.5,73.1,64,73.1,64z"/>
<path class="st1" d="M0,103l14.6-1.1c0.3,2.8,1,4.9,1.9,6.3c1.6,2.3,3.8,3.5,6.8,3.5c2.2,0,3.9-0.6,5.1-1.8c1.2-1.2,1.8-2.6,1.8-4.2
	c0-1.5-0.6-2.8-1.7-4c-1.2-1.1-3.8-2.3-7.9-3.3c-6.7-1.8-11.5-4.1-14.4-7s-4.3-6.7-4.3-11.2c0-3,0.7-5.8,2.2-8.4
	c1.5-2.7,3.7-4.7,6.7-6.3c3-1.5,7-2.3,12.2-2.3c6.3,0,11.2,1.4,14.5,4.1c3.3,2.8,5.3,7.1,5.9,13.2l-14.4,1c-0.4-2.6-1.2-4.5-2.4-5.7
	c-1.2-1.2-2.9-1.8-5.1-1.8c-1.8,0-3.1,0.4-4,1.3s-1.4,2-1.4,3.2c0,0.9,0.4,1.8,1.1,2.5c0.7,0.8,2.4,1.5,5.1,2.1
	c6.7,1.7,11.5,3.4,14.4,5.1c2.9,1.7,5,3.9,6.3,6.4c1.3,2.6,2,5.4,2,8.6c0,3.7-0.9,7.2-2.6,10.3s-4.2,5.5-7.4,7.1
	c-3.2,1.6-7.1,2.4-11.9,2.4c-8.4,0-14.3-1.9-17.5-5.7C2.3,113.7,0.4,108.8,0,103z"/>
<g>
	<path class="st1" d="M16.7,11.6c7,0,12.7,5.7,12.7,12.7S23.7,37,16.7,37S4,31.3,4,24.3S9.7,11.6,16.7,11.6 M16.7,7.6
		C7.5,7.6,0,15,0,24.3S7.5,41,16.7,41s16.7-7.5,16.7-16.7S26,7.6,16.7,7.6L16.7,7.6z"/>
</g>
<g>
	<path class="st1" d="M60,4c7,0,12.7,5.7,12.7,12.7S67,29.4,60,29.4s-12.7-5.7-12.7-12.7S53,4,60,4 M60,0c-9.2,0-16.7,7.5-16.7,16.7
		S50.8,33.4,60,33.4S76.7,26,76.7,16.7S69.2,0,60,0L60,0z"/>
</g>
<g>
	<path class="st1" d="M103.3,11.6c7,0,12.7,5.7,12.7,12.7S110.3,37,103.3,37s-12.7-5.7-12.7-12.7S96.3,11.6,103.3,11.6 M103.3,7.6
		C94,7.6,86.6,15,86.6,24.3S94,41,103.3,41c9.2,0,16.7-7.5,16.7-16.7S112.5,7.6,103.3,7.6L103.3,7.6z"/>
</g>
</svg>
