<?xml version="1.0" encoding="utf-8"?>
<!-- Generator: Adobe Illustrator 24.1.3, SVG Export Plug-In . SVG Version: 6.00 Build 0)  -->
<svg version="1.1" id="Layer_1" xmlns="http://www.w3.org/2000/svg" xmlns:xlink="http://www.w3.org/1999/xlink" x="0px" y="0px"
	 viewBox="0 0 100 100" style="enable-background:new 0 0 100 100;" xml:space="preserve">
<style type="text/css">
	.st0{fill:#FFFFFF;}
</style>
<path d="M75,100H25C11.2,100,0,88.8,0,75V25C0,11.2,11.2,0,25,0h50c13.8,0,25,11.2,25,25v50C100,88.8,88.8,100,75,100z"/>
<g>
	<path class="st0" d="M75,5c11,0,20,9,20,20v50c0,11-9,20-20,20H25C14,95,5,86,5,75V25C5,14,14,5,25,5H75 M75,0H25
		C11.2,0,0,11.2,0,25v50c0,13.8,11.2,25,25,25h50c13.8,0,25-11.2,25-25V25C100,11.2,88.8,0,75,0L75,0z"/>
</g>
<rect x="45" y="20" class="st0" width="10" height="60"/>
<g>
	<circle class="st0" cx="50" cy="50" r="12"/>
	<path d="M50,40c5.5,0,10,4.5,10,10s-4.5,10-10,10s-10-4.5-10-10S44.5,40,50,40 M50,36c-7.7,0-14,6.3-14,14s6.3,14,14,14
		s14-6.3,14-14S57.7,36,50,36L50,36z"/>
</g>
</svg>
