<?xml version="1.0" encoding="UTF-8"?><svg id="a" xmlns="http://www.w3.org/2000/svg" viewBox="0 0 488.73 138.34"><defs><style>.b{fill:#0b9348;}.c{fill:#099349;}</style></defs><g><path class="c" d="M90.98,8.3c1.24-1.93,1.3-2.96,.26-4.02-.81-.84-2.21-1.02-3.17-.4-1.06,.68-1.45,2.08-.92,3.24,.61,1.36,1.53,1.65,3.83,1.17Z"/><path class="c" d="M27,82.48c1.92-1.78,3.44-3.99,5.27-5.89,3.4-3.51,6.89-6.95,10.77-10.87,2.62-6.24,3.55-6.97,8.7-6.09,.86-.85,1.9-1.78,2.81-2.81,8.34-9.3,15.43-19.49,21.8-30.2,2.75-4.6,5.27-9.34,7.84-14.05,.62-1.14,1.23-2.37,.53-3.74,0,0,0,0,0,0v.11s-.02-.02-.03-.03c-.59,1.76-1.19,3.52-1.78,5.28-.16-.01-.32-.02-.47-.03-.33-1.38-.73-2.74-.97-4.13-.36-2.05,.18-2.75,2.46-3.38,.25,.75,.51,1.51,.77,2.26,0-.02,.01-.04,.02-.06,0,0,0,.01,0,.01,.08-.96,.19-1.9,.21-2.85,.06-1.66,.75-2.97,1.83-3.75-5.61-1.47-11.5-2.25-17.57-2.25C30.97,0,0,30.97,0,69.17c0,9.54,1.93,18.64,5.43,26.91,1.44-.7,2.88-1.42,4.3-2.17,6.12-3.23,12.16-6.67,17.27-11.43Zm15.61-18.7c-.04,2.63-2.33,3.36-3.81,5.16,.51-2.93,1.48-4.2,3.81-5.16Z"/><path class="c" d="M94.57,4.81c.34,1.08,.05,2.27-.87,3.56-4.14,5.84-8.4,11.58-12.33,17.54-7.87,11.98-14.72,24.52-19.71,38-1.65,4.42-2.68,9.09-3.9,13.65-.23,.85-.08,1.78-.09,2.68v-.02s0,.02,0,.02c1.1,1.25,2.2,2.51,3.3,3.76-.07,.16-.15,.31-.22,.47-.95-.02-1.9-.04-2.83-.05-.09-1.52-.18-2.87-.26-4.21h0c-.17,.41-.5,.83-.49,1.23,.11,2.87-.04,5.79,.51,8.57,1.05,5.31,4.6,8.25,10.02,8.88,5.06,.59,9.93-.4,14.71-1.85,8.59-2.6,16.63-6.48,24.52-10.74,2.29-1.25,4.57-2.52,7-3.61-.53,.54-1.02,1.13-1.6,1.6-9.08,7.52-18.78,14.1-29.41,19.24-7.12,3.45-14.47,6.15-22.32,7.09-.39,.05-.8,.09-1.2,.12-.31,.03-.61,.06-.92,.09-.54,.05-1.08,.08-1.62,.11-.62,.02-1.24,.05-1.86,.05-3.68,.06-7.31-.24-10.86-1.34-2.86-.88-5.45-2.2-7.32-4.72-1.78-2.39-1.72-4.87-.54-7.74-3.35,3.4-2.57,8.32,.09,10.85,2.26,2.12,4.92,3.58,7.86,4.43,3.32,.97,6.65,1.59,9.98,1.66h.04c1.35,.05,2.69-.02,4.03-.18h.04c.03,.06,.07,.11,.1,.16-.03,.22-.07,.44-.1,.68-.05,.38-.1,.79-.14,1.2-.01,.11-.02,.22-.03,.33-.1,1.08-.14,2.23-.05,3.32-2.07,1.72-4.45,3.39-7.03,4.94-1.73,1.03-3.55,2.01-5.42,2.89-1.85,.87-3.75,1.65-5.68,2.32-.88,.3-1.76,.57-2.64,.83,9.53,4.95,20.36,7.75,31.84,7.75,38.2,0,69.17-30.97,69.17-69.17,0-29.24-18.14-54.24-43.78-64.36Zm-.18,4.6c1.36,2.02,2.53,3.74,3.69,5.47l-.41,.51c-1.91-.65-3.82-1.29-6.09-2.06,1.03-1.44,1.81-2.53,2.81-3.92Zm-3.27,4.51c2.41,1.57,3.13,3.94,4.76,6.35-2.82-.44-5.09-1.07-7.46-2.43,.89-1.3,1.73-2.52,2.7-3.92Zm-3.41,4.8c2.35,1.51,3.14,3.85,4.29,5.94-.09,.16-.17,.31-.26,.47-2.2-.71-4.41-1.42-7.02-2.26,1.19-1.65,2.03-2.83,2.99-4.15Zm-3.41,4.87c1.7,2.27,3.14,4.2,4.76,6.37-2.67-.11-4.89-.74-7.31-1.95,.81-1.4,1.55-2.68,2.55-4.42Zm-3.29,5.4c2.23,1.45,3.22,3.66,4.61,5.56-1.95,.46-4.48-.12-7.2-1.72,.9-1.34,1.69-2.52,2.58-3.84Zm-3.12,4.63c1.6,2.14,2.99,4,4.52,6.05-2.62,.19-4.79-.56-7.19-1.63,.92-1.53,1.69-2.81,2.67-4.43Zm-3.22,5.31c1.91,2.06,3.81,3.5,4.89,6.17-2.64-.24-4.91-.61-7.36-1.64,.82-1.5,1.53-2.81,2.47-4.53Zm-2.85,5.13c1.87,2.05,3.48,3.82,5.44,5.97-2.98,.18-5.25-.36-7.78-1.23,.74-1.5,1.42-2.89,2.34-4.75Zm-5.33,11.37c1.83,2.11,3.32,3.83,5.06,5.85-2.84,.34-5.04-.19-7.45-1.11,.75-1.48,1.42-2.82,2.39-4.73Zm-8.16,23.06c.34-1.6,.64-2.98,1-4.64,1.98,1.15,2.93,2.83,4.26,4.94-2.01-.12-3.46-.2-5.25-.31Zm1.54-6.65c.47-1.44,.88-2.72,1.41-4.35,1.89,1.53,3.49,2.85,4.48,5.15-2.13,.29-3.9-.2-5.9-.8Zm1.93-5.65c.68-1.8,1.22-3.21,1.83-4.8,2.37,1.33,3.77,3.33,5.16,5.33-.07,.17-.15,.34-.22,.52-2.16-.33-4.32-.67-6.77-1.04Zm6.37,32.02c.05-2.25,.09-4.14,.13-6.03,.18-.08,.35-.16,.53-.24,1.54,1.84,3.07,3.67,4.97,5.94-2.15,.13-3.67,.22-5.63,.33Zm-1.38-43.7c.83-1.75,1.47-3.1,2.4-5.06,1.94,2.13,3.56,3.93,5.19,5.72-.09,.18-.18,.37-.27,.55-2.3-.38-4.6-.76-7.32-1.21Zm7.6,43.18c-.04-2.47-.07-4.65-.1-6.82,.2-.07,.4-.15,.6-.22,1.54,1.76,3.09,3.52,4.73,5.39-1.56,1.41-3.17,1.41-5.23,1.65Zm6.25-1.42c-.2-2.65-.37-4.89-.55-7.13,.26-.08,.53-.17,.79-.25,1.58,1.76,3.15,3.51,4.96,5.53-1.9,.68-3.32,1.19-5.2,1.86Zm6.61-2.23c-1.01-2.5-1.19-4.88-.92-7.55,2.17,1.61,3.8,3.37,5.41,5.59-1.67,.73-2.99,1.31-4.48,1.96Zm5.86-2.43c-1.19-2.49-1.16-4.84-1.25-7.59,2.28,1.52,4.02,3.02,5.44,5.41-1.44,.75-2.75,1.44-4.19,2.19Zm5.23-2.43c-.43-2.91-.78-5.25-1.13-7.59,.17-.1,.34-.2,.52-.3,1.71,1.65,3.43,3.3,5.51,5.3-1.75,.93-3.06,1.62-4.89,2.59Zm5.45-2.55c-.47-2.84-.86-5.14-1.31-7.88,2.6,1.34,4.09,3.13,5.74,4.88-1.02,1.65-2.79,1.66-4.43,3Zm5.81-3.15c-1.53-2.28-1.51-4.69-1.82-7.58,2.24,1.76,4.34,2.9,5.7,5.47-1.37,.74-2.56,1.39-3.88,2.11Z"/><path class="c" d="M52.72,64.45c-.22-2.51-1.44-3.54-4.13-3.29,.35,1.23,.69,2.47,1.07,3.81-1.39-.9-2.52-1.61-3.74-2.4-1.6,2.44-.3,4.12,.68,5.94,2.09-1.38,4.05-2.69,6.12-4.05Z"/></g><g><path class="b" d="M181.9,68.06c0-29.19,17.55-46.99,41.54-46.99,12.54,0,20.8,5.69,26.1,11.16l-6.31,7.5c-4.59-4.73-10.39-8.54-19.48-8.54-18.23,0-29.95,14.01-29.95,36.56s10.76,37.01,30.06,37.01c6.49,0,12.73-1.95,16.31-5.32v-23.57h-19.16v-9.54h29.67v38.04c-5.82,6.07-15.73,10.51-27.9,10.51-23.88,0-40.87-17.43-40.87-46.83Z"/><path class="b" d="M267.02,95.83c0-14.6,12.6-21.9,41.17-25.01-.03-8.62-2.89-16.93-13.84-16.93-7.75,0-14.74,3.67-19.99,7.19l-4.44-7.77c6.17-4.05,15.57-8.75,26.33-8.75,16.36,0,23.28,10.87,23.28,27.56v41.12h-9.37l-.96-8.01h-.38c-6.39,5.31-13.85,9.67-22.17,9.67-11.22,0-19.64-6.96-19.64-19.06Zm41.17,1.05v-18.61c-22.46,2.7-30.06,8.2-30.06,16.77,0,7.62,5.17,10.72,11.75,10.72s11.82-3.15,18.31-8.87Z"/><path class="b" d="M340.73,92.5V55.44h-9.97v-8.59l10.48-.65,1.36-18.8h9.47v18.8h18.16v9.24h-18.16v37.26c0,8.19,2.64,12.94,10.37,12.94,2.38,0,5.46-.9,7.64-1.8l2.19,8.56c-3.76,1.28-8.25,2.48-12.44,2.48-14.27,0-19.1-9.04-19.1-22.38Z"/><path class="b" d="M378.44,79.8c0-21.82,14.7-35.26,30.13-35.26,17.1,0,26.75,12.28,26.75,31.45,0,2.39-.2,4.79-.53,6.44h-45.14c.81,14.2,9.49,23.41,22.27,23.41,6.43,0,11.72-2.08,16.68-5.36l4.06,7.44c-5.88,3.84-13.02,6.95-22.13,6.95-17.87,0-32.09-13.06-32.09-35.08Zm46.86-5.48c0-13.43-6.04-20.74-16.52-20.74-9.42,0-17.84,7.57-19.22,20.74h35.75Z"/><path class="b" d="M451.81,46.2h9.37l.96,12.21h.38c4.67-8.5,11.52-13.86,19.06-13.86,2.97,0,5.05,.38,7.16,1.38l-2.12,9.95c-2.31-.73-3.82-1.1-6.5-1.1-5.66,0-12.43,4.08-16.96,15.42v43.04h-11.34V46.2Z"/></g></svg>