<svg height='100px' width='100px'  fill="#FFFFFF" xmlns="http://www.w3.org/2000/svg" xmlns:xlink="http://www.w3.org/1999/xlink" viewBox="0 0 32 32" version="1.1" x="0px" y="0px"><title>mdpi/icons / info</title><g stroke="none" stroke-width="1" fill="none" fill-rule="evenodd"><path d="M16,1 C24.2842712,1 31,7.71572875 31,16 C31,24.2842712 24.2842712,31 16,31 C7.71572875,31 1,24.2842712 1,16 C1,7.71572875 7.71572875,1 16,1 Z M16,3 C8.82029825,3 3,8.82029825 3,16 C3,23.1797017 8.82029825,29 16,29 C23.1797017,29 29,23.1797017 29,16 C29,8.82029825 23.1797017,3 16,3 Z M17,12 L17,20 L19,20 L19,22 L13,22 L13,20 L15,20 L15,14 L13,14 L13,12 L17,12 Z M15.5,8 C16.3284271,8 17,8.67157288 17,9.5 C17,10.3284271 16.3284271,11 15.5,11 C14.6715729,11 14,10.3284271 14,9.5 C14,8.67157288 14.6715729,8 15.5,8 Z" fill="#FFFFFF" fill-rule="nonzero"></path></g></svg>