<svg height='100px' width='100px'  fill="#000000" xmlns="http://www.w3.org/2000/svg" xmlns:xlink="http://www.w3.org/1999/xlink" version="1.1" x="0px" y="0px" viewBox="0 0 30 30" xml:space="preserve"><g transform="translate(-30 -440)"><g xmlns="http://www.w3.org/2000/svg" xmlns:xlink="http://www.w3.org/1999/xlink"><path d="M53,446H37v-2h-5v5h2v12h-2v5h5v-2h16v2h5v-5h-2v-12h2v-5h-5V446z M33,448v-3h3v3H33z M36,465h-3v-3h3V465z M53,463H37v-2    h-2v-12h2v-2h16v2h2v12h-2V463z M57,462v3h-3v-3H57z M54,445h3v3h-3V445z"></path></g></g></svg>