<svg height='100px' width='100px'  fill="#000000" xmlns="http://www.w3.org/2000/svg" viewBox="0 0 96 96" x="0px" y="0px"><title>icon37</title><g data-name="Layer 5"><path d="M70.27,12.72a12.6,12.6,0,0,0-8,8,.66.66,0,0,1-1.26,0,12.54,12.54,0,0,0-8-8,.66.66,0,0,1,0-1.26,12.6,12.6,0,0,0,8-8,.66.66,0,0,1,1.26,0,12.66,12.66,0,0,0,8,8A.66.66,0,0,1,70.27,12.72Zm18.18,8.15a5.93,5.93,0,0,1-3.77-3.76.31.31,0,0,0-.59,0,5.93,5.93,0,0,1-3.77,3.76.32.32,0,0,0,0,.6,5.93,5.93,0,0,1,3.77,3.76.31.31,0,0,0,.59,0,5.93,5.93,0,0,1,3.77-3.76A.32.32,0,0,0,88.45,20.87Zm1,33.13a11,11,0,0,1-7-7,.58.58,0,0,0-1.11,0,11,11,0,0,1-7,7,.58.58,0,0,0,0,1.11,11,11,0,0,1,7,7,.58.58,0,0,0,1.11,0,11,11,0,0,1,7-7A.58.58,0,0,0,89.48,54ZM44.16,28.48a7.8,7.8,0,0,1-4.94-4.95.41.41,0,0,0-.78,0,7.8,7.8,0,0,1-4.94,4.95.41.41,0,0,0,0,.78,7.77,7.77,0,0,1,4.94,4.94.41.41,0,0,0,.78,0,7.77,7.77,0,0,1,4.94-4.94A.41.41,0,0,0,44.16,28.48Zm31.36,4.65L15.65,93,6.11,83.46,66,23.59ZM66,29.83,55.7,40.1,59,43.4,69.28,33.13Zm19.22,6a2.53,2.53,0,1,0-2.53,2.53A2.53,2.53,0,0,0,85.2,35.85Zm-16,11.43a2.47,2.47,0,1,0,2.47,2.47A2.47,2.47,0,0,0,69.19,47.28ZM55.7,26a2.38,2.38,0,1,0-2.37,2.37A2.38,2.38,0,0,0,55.7,26Z"></path></g></svg>