<?xml version="1.0" standalone="no"?>
<!DOCTYPE svg PUBLIC "-//W3C//DTD SVG 20010904//EN"
 "http://www.w3.org/TR/2001/REC-SVG-20010904/DTD/svg10.dtd">
<svg version="1.0" xmlns="http://www.w3.org/2000/svg"
 width="700.000000pt" height="700.000000pt" viewBox="0 0 700.000000 700.000000"
 preserveAspectRatio="xMidYMid meet">
<metadata>
Created by potrace 1.14, written by Peter Selinger 2001-2017
</metadata>
<g transform="translate(0.000000,700.000000) scale(0.100000,-0.100000)"
fill="#000000" stroke="none">
<path d="M2490 6147 c0 -10 29 -71 224 -471 75 -153 136 -282 136 -286 0 -4
-36 13 -81 39 -44 25 -97 55 -117 67 -20 11 -192 111 -382 221 -408 237 -421
245 -425 241 -2 -2 12 -73 30 -159 19 -85 36 -166 39 -180 2 -13 12 -58 21
-99 9 -41 18 -84 21 -95 2 -11 6 -31 9 -45 3 -14 7 -34 9 -45 3 -11 25 -117
50 -235 25 -118 50 -230 55 -247 5 -18 7 -33 4 -33 -3 0 -25 20 -49 44 -24 24
-121 117 -215 207 -94 90 -206 198 -248 239 -43 41 -85 81 -93 88 -14 11 -24
-12 -82 -195 -37 -114 -74 -226 -82 -248 l-16 -40 69 -65 c60 -56 130 -122
333 -310 21 -19 87 -80 147 -136 59 -56 122 -113 138 -128 88 -81 145 -139
141 -143 -2 -3 -94 -16 -203 -29 -109 -13 -214 -26 -233 -28 -19 -3 -60 -8
-90 -12 -30 -3 -64 -7 -75 -9 -11 -1 -49 -5 -85 -9 -36 -4 -76 -9 -90 -11 -14
-2 -50 -6 -80 -10 -30 -4 -66 -8 -80 -10 -14 -2 -50 -6 -80 -10 -97 -11 -107
-15 -118 -43 -9 -22 -119 -361 -146 -450 -7 -20 -5 -22 21 -18 15 3 48 7 73
11 25 3 56 8 70 10 14 2 48 7 75 10 46 6 78 10 145 20 14 1 79 10 145 20 66 9
130 18 141 20 12 2 48 6 80 10 33 4 68 9 79 12 21 5 2 -14 -131 -133 -38 -34
-81 -72 -95 -85 -14 -13 -61 -55 -105 -94 -43 -38 -106 -95 -139 -125 -33 -30
-83 -75 -111 -100 -28 -25 -85 -76 -128 -115 -43 -38 -95 -85 -115 -102 -35
-32 -35 -33 -11 -34 14 0 34 -2 45 -3 11 -2 54 -6 96 -10 42 -4 85 -8 95 -10
11 -2 55 -7 99 -11 44 -4 94 -8 110 -10 17 -2 57 -6 90 -10 33 -3 78 -8 100
-10 22 -3 87 -9 145 -15 58 -6 121 -13 140 -15 19 -2 69 -7 110 -11 95 -8 98
-9 105 -15 3 -3 -32 -25 -78 -49 -104 -54 -661 -352 -665 -355 -3 -2 366 -272
405 -296 20 -12 26 -11 50 3 23 13 190 106 693 385 30 17 104 58 164 92 l108
60 -7 -45 c-3 -25 -8 -56 -11 -67 -2 -12 -6 -33 -9 -47 -2 -14 -9 -50 -15 -80
-6 -30 -13 -66 -16 -80 -2 -14 -7 -36 -10 -50 -3 -14 -8 -36 -10 -50 -4 -21
-18 -92 -38 -195 -2 -11 -26 -130 -52 -265 l-47 -244 24 -18 c13 -9 65 -47
114 -82 50 -36 95 -69 100 -73 41 -34 187 -134 189 -132 2 2 6 24 9 49 3 25
17 106 31 180 14 74 28 151 31 170 8 53 17 103 22 125 2 11 15 85 29 165 14
79 26 146 28 147 1 2 15 -25 31 -60 15 -34 38 -84 51 -112 12 -27 106 -240
209 -473 l188 -423 189 428 c104 235 195 442 203 458 7 17 29 65 49 108 19 42
37 77 40 77 3 0 5 -3 4 -7 -2 -8 8 -77 18 -126 2 -12 13 -74 24 -137 11 -63
22 -128 25 -145 26 -141 35 -194 39 -219 3 -16 10 -52 15 -80 6 -28 12 -66 15
-84 2 -19 6 -36 9 -38 3 -4 77 48 308 216 57 41 106 77 111 80 4 3 -1 48 -12
100 -10 52 -49 248 -85 435 -36 187 -77 396 -91 464 -13 68 -23 125 -22 126 3
2 104 -53 486 -266 28 -16 78 -43 110 -60 31 -18 83 -47 115 -65 32 -19 60
-34 61 -34 2 0 53 -29 114 -64 l111 -64 43 31 c24 18 48 36 55 42 6 5 82 60
167 120 85 61 155 113 156 117 0 6 -68 43 -310 171 -47 24 -110 58 -140 74
-81 44 -219 118 -265 142 -22 12 -35 21 -30 22 6 0 17 2 25 3 8 2 49 6 90 10
41 3 89 8 105 10 48 6 199 22 300 31 33 3 76 7 95 10 19 2 64 7 99 10 36 4 81
8 100 11 102 11 130 14 176 19 28 3 74 7 104 10 30 3 56 7 58 9 2 2 -58 59
-134 127 -76 68 -140 126 -143 129 -11 12 -236 213 -286 257 -12 10 -59 52
-105 93 -46 41 -107 95 -135 120 -59 51 -64 60 -31 55 32 -4 267 -36 302 -41
17 -2 48 -6 70 -9 22 -3 51 -7 64 -10 13 -2 49 -7 80 -10 31 -4 63 -8 71 -10
8 -2 38 -7 65 -10 28 -3 74 -10 104 -16 30 -5 57 -7 59 -4 3 3 -24 96 -61 207
-36 112 -71 222 -78 245 -13 45 -16 46 -124 58 -27 4 -61 8 -75 10 -14 2 -52
7 -85 10 -33 4 -71 8 -85 10 -14 2 -45 6 -70 9 -25 3 -99 12 -165 20 -66 8
-145 18 -175 21 -30 4 -66 8 -80 10 -14 2 -50 7 -80 10 -68 7 -129 15 -155 20
-11 2 -29 4 -40 5 -16 0 -9 11 35 52 108 100 305 284 376 351 40 38 82 76 93
87 12 10 72 65 134 123 62 57 127 119 146 136 l34 32 -29 92 c-72 227 -130
399 -136 400 -3 1 -93 -82 -199 -185 -331 -319 -413 -397 -416 -394 -1 1 53
259 120 572 l122 571 -108 -64 c-59 -35 -110 -63 -112 -63 -2 0 -24 -13 -48
-30 -25 -16 -47 -30 -49 -30 -3 0 -159 -90 -349 -199 -189 -110 -345 -199
-346 -197 -2 1 19 47 46 102 48 98 164 337 266 549 30 60 52 112 50 115 -4 6
-514 5 -519 -1 -5 -6 -106 -219 -106 -224 0 -2 -26 -59 -58 -127 -32 -68 -117
-248 -187 -400 -71 -153 -132 -275 -136 -270 -6 6 -54 108 -232 492 -19 41
-49 107 -67 145 -18 39 -64 138 -102 220 -39 83 -74 154 -79 159 -11 12 -519
14 -519 3z m291 -1247 c151 -88 281 -164 289 -170 8 -5 47 -27 85 -49 119 -68
115 -48 45 -197 -33 -71 -71 -152 -84 -180 -13 -27 -23 -50 -21 -52 1 -1 91
50 199 113 l197 116 62 -35 c34 -19 123 -70 197 -114 74 -45 136 -79 138 -78
1 2 -17 46 -41 97 -127 273 -121 259 -106 273 8 8 34 25 59 39 56 31 429 249
490 286 124 76 191 113 196 108 3 -2 -16 -97 -41 -210 -25 -114 -48 -219 -51
-234 -3 -15 -9 -44 -14 -63 -5 -19 -12 -48 -15 -65 -3 -16 -18 -86 -33 -155
l-28 -125 -38 0 c-21 0 -113 9 -203 21 l-165 20 39 -35 c67 -62 196 -176 250
-222 28 -24 52 -50 52 -57 1 -10 -14 -85 -64 -315 -2 -10 -6 -26 -9 -35 -3 -9
-8 -32 -11 -51 -3 -19 -9 -39 -12 -45 -6 -11 24 14 77 64 74 70 219 202 223
203 4 2 79 -62 181 -155 23 -20 50 -45 62 -55 81 -70 349 -308 394 -350 34
-32 34 -33 10 -32 -14 1 -45 -1 -70 -5 -25 -3 -72 -8 -105 -11 -162 -15 -171
-16 -290 -29 -22 -3 -76 -8 -120 -11 -44 -3 -91 -8 -105 -10 -14 -2 -60 -7
-102 -10 l-77 -6 -6 38 c-3 21 -10 54 -14 73 -5 19 -19 90 -32 158 -12 68 -25
119 -29 115 -4 -4 -47 -99 -95 -209 l-87 -202 -52 -6 c-28 -3 -80 -8 -116 -11
-36 -3 -74 -7 -85 -10 -11 -2 -60 -7 -110 -10 -49 -4 -91 -8 -93 -10 -2 -2 68
-43 156 -91 88 -48 167 -93 176 -100 17 -12 13 -23 -54 -169 -10 -22 -25 -56
-33 -75 -9 -19 -28 -64 -44 -100 -16 -36 -69 -158 -118 -272 -71 -164 -92
-204 -99 -190 -6 9 -36 76 -67 147 -31 72 -65 150 -76 175 -11 25 -62 141
-113 259 -82 186 -92 215 -78 225 8 6 88 51 176 101 89 49 160 90 159 91 -1 1
-38 5 -82 9 -44 4 -93 8 -110 10 -16 2 -57 6 -90 9 -135 13 -170 18 -177 24
-3 4 -30 61 -58 127 -29 66 -64 147 -80 180 -15 33 -30 71 -34 83 -8 23 -18
23 -22 -1 -2 -7 -10 -50 -19 -97 -9 -47 -24 -125 -34 -175 l-17 -90 -40 1
c-53 1 -215 14 -234 19 -8 2 -53 6 -100 10 -47 3 -92 8 -100 10 -8 2 -51 6
-95 10 -44 3 -93 7 -110 9 -16 2 -68 7 -115 11 -47 4 -86 8 -88 10 -3 3 68 71
132 126 22 19 49 43 61 54 22 20 36 33 180 160 44 39 85 75 91 80 31 28 156
140 175 156 21 18 22 18 49 -9 57 -56 253 -237 260 -240 4 -2 0 34 -10 80 -37
175 -51 235 -66 297 -15 60 -15 65 3 81 10 10 83 75 163 146 80 70 147 134
148 142 2 8 0 12 -5 9 -5 -3 -31 -8 -59 -12 -27 -3 -69 -8 -94 -11 -25 -4 -56
-8 -70 -9 -14 -2 -55 -6 -92 -10 -38 -4 -68 -6 -68 -3 0 6 -18 94 -30 148 -4
19 -18 79 -30 134 -12 54 -23 106 -25 115 -2 9 -13 60 -25 115 -12 54 -23 106
-25 115 -2 9 -9 39 -15 66 -14 62 -19 82 -26 119 -2 16 -7 33 -10 38 -13 21
33 -3 287 -152z"/>
</g>
</svg>
