<?xml version="1.0" encoding="utf-8"?>
<!-- Generator: Adobe Illustrator 26.0.3, SVG Export Plug-In . SVG Version: 6.00 Build 0)  -->
<svg version="1.1" id="Layer_1" xmlns="http://www.w3.org/2000/svg" xmlns:xlink="http://www.w3.org/1999/xlink" x="0px" y="0px"
	 viewBox="0 0 120 114.2" style="enable-background:new 0 0 120 114.2;" xml:space="preserve">
<style type="text/css">
	.st0{fill:#FFFFFF;}
</style>
<path class="st0" d="M0,54.8V0h27.5c5.1,0,9,0.4,11.7,1.3c2.7,0.9,4.9,2.6,6.5,5c1.6,2.4,2.5,5.4,2.5,8.9c0,3-0.6,5.7-1.9,7.9
	c-1.3,2.2-3,4-5.2,5.4c-1.4,0.9-3.3,1.6-5.8,2.2c2,0.7,3.4,1.3,4.3,2c0.6,0.4,1.5,1.4,2.6,2.9c1.2,1.5,1.9,2.6,2.3,3.4l8,15.9H33.9
	L25,38.1c-1.1-2.2-2.1-3.6-3-4.2c-1.2-0.8-2.5-1.3-4-1.3h-1.5v22.2H0z M16.6,22.2h7c0.8,0,2.2-0.2,4.4-0.7c1.1-0.2,2-0.8,2.7-1.7
	c0.7-0.9,1-2,1-3.2c0-1.8-0.5-3.1-1.6-4.1s-3.1-1.4-6.2-1.4h-7.2V22.2z"/>
<path class="st0" d="M97.8,24.5H68.1c0.3,2.4,0.9,4.3,1.9,5.5c1.4,1.7,3.3,2.6,5.6,2.6c1.5,0,2.8-0.4,4.1-1.1
	c0.8-0.5,1.7-1.3,2.6-2.5L97,30.3c-2.2,4-4.9,6.8-8.1,8.6c-3.2,1.7-7.7,2.6-13.6,2.6c-5.1,0-9.1-0.7-12.1-2.2s-5.4-3.8-7.3-7.1
	c-1.9-3.2-2.9-7-2.9-11.4c0-6.2,1.9-11.2,5.8-15.1S68.1,0,74.9,0c5.5,0,9.9,0.9,13.1,2.6s5.6,4.2,7.3,7.5s2.5,7.5,2.5,12.7V24.5z
	 M82.8,17.2c-0.3-2.9-1.1-5-2.3-6.3C79.2,9.6,77.6,9,75.5,9c-2.4,0-4.2,1-5.6,2.9c-0.9,1.2-1.5,3-1.7,5.3H82.8z"/>
<path class="st0" d="M105.2,0H120v54.8h-14.8V0z"/>
<path class="st0" d="M0,54.3h16.6v59.9H0V54.3z"/>
<path class="st0" d="M23.1,81.7h11.6v4.7c1.7-2,3.4-3.4,5.1-4.2c1.7-0.8,3.8-1.3,6.2-1.3c2.6,0,4.6,0.5,6.2,1.4
	c1.5,0.9,2.7,2.3,3.7,4.1c2-2.1,3.7-3.6,5.3-4.3s3.6-1.1,6-1.1c3.5,0,6.2,1,8.2,3.1c2,2.1,2.9,5.3,2.9,9.7v20.4H65.8V95.7
	c0-1.5-0.3-2.6-0.9-3.3c-0.8-1.1-1.9-1.7-3.1-1.7c-1.5,0-2.6,0.5-3.5,1.6c-0.9,1.1-1.3,2.8-1.3,5.1v16.8H44.4V96.3
	c0-1.4-0.1-2.4-0.2-2.9c-0.3-0.8-0.7-1.5-1.4-2s-1.4-0.7-2.3-0.7c-1.4,0-2.6,0.5-3.5,1.6c-0.9,1.1-1.4,2.9-1.4,5.3v16.6H23.1V81.7z"
	/>
<path class="st0" d="M108.3,68.5h11.7v30.7l0,1.4c0,2-0.4,4-1.3,5.8c-0.9,1.8-2,3.3-3.5,4.5c-1.4,1.1-3.3,2-5.5,2.5
	c-2.2,0.5-4.7,0.8-7.6,0.8c-6.5,0-11-1-13.5-2.9c-2.4-2-3.7-4.6-3.7-7.9c0-0.4,0-1,0.1-1.7l12.1,1.4c0.3,1.1,0.8,1.9,1.4,2.3
	c0.9,0.6,2.1,0.9,3.5,0.9c1.8,0,3.1-0.5,4-1.4s1.3-2.6,1.3-5V95c-1.2,1.4-2.4,2.5-3.7,3.2c-1.9,1-4,1.5-6.2,1.5
	c-4.3,0-7.9-1.9-10.5-5.7c-1.9-2.7-2.8-6.3-2.8-10.7c0-5.1,1.2-8.9,3.7-11.6c2.4-2.7,5.7-4,9.6-4c2.5,0,4.6,0.4,6.3,1.3
	c1.6,0.9,3.2,2.3,4.6,4.3V68.5z M96.6,84.3c0,2.3,0.5,4.1,1.5,5.2c1,1.1,2.3,1.7,3.9,1.7c1.6,0,2.9-0.6,3.9-1.8s1.6-2.9,1.6-5.3
	c0-2.4-0.6-4.2-1.7-5.4s-2.4-1.9-4-1.9s-2.9,0.6-3.8,1.7C97,79.7,96.6,81.6,96.6,84.3z"/>
</svg>
