<?xml version="1.0" encoding="utf-8"?>
<!-- Generator: Adobe Illustrator 26.0.3, SVG Export Plug-In . SVG Version: 6.00 Build 0)  -->
<svg version="1.1" id="Layer_1" xmlns="http://www.w3.org/2000/svg" xmlns:xlink="http://www.w3.org/1999/xlink" x="0px" y="0px"
	 viewBox="0 0 120 116.8" style="enable-background:new 0 0 120 116.8;" xml:space="preserve">
<style type="text/css">
	.st0{fill:#FFFFFF;}
</style>
<g>
	<path class="st0" d="M0,56.7h14.7l19.1,32.7V56.7h14.8v59H33.8l-19-32.4v32.4H0V56.7z"/>
	<path class="st0" d="M67.7,35.2l26.1,4.7c-1.8,4.4-4.5,8.1-8.3,11c-3.8,3-8.5,5.2-14,6.7c-5.6,1.5-12.7,2.3-21.3,2.3
		c-10.5,0-19-0.9-25.7-2.7c-6.6-1.8-12.4-5.1-17.2-9.7S0.1,37,0.1,29.8c0-9.6,4.2-17,12.7-22.1C21.3,2.5,33.3,0,48.8,0
		c12.1,0,21.7,1.5,28.6,4.4c6.9,3,12.1,7.5,15.5,13.6l-26.3,3.5c-0.9-1.8-1.9-3.1-2.9-3.9c-1.7-1.4-3.7-2.4-6.1-3.2
		c-2.4-0.7-5.1-1.1-8.1-1.1c-6.8,0-11.9,1.6-15.5,4.9c-2.7,2.4-4.1,6.2-4.1,11.4c0,6.4,1.6,10.8,4.9,13.2c3.2,2.4,7.8,3.6,13.7,3.6
		c5.7,0,10-1,12.9-2.9C64.2,41.7,66.4,38.9,67.7,35.2z"/>
	<path class="st0" d="M104.9,1H120v58h-15.1V1z"/>
	<g>
		<path class="st0" d="M56,67.9h10.6v23.4c1-1.1,2.2-1.9,3.6-2.5c1.3-0.6,2.8-0.8,4.4-0.8c3.3,0,6.1,1.2,8.3,3.6
			c2.2,2.4,3.3,5.9,3.3,10.4c0,3-0.5,5.7-1.5,8c-1,2.3-2.4,4-4.1,5.1c-1.8,1.1-3.7,1.7-5.9,1.7c-1.8,0-3.5-0.4-5.1-1.2
			c-1.2-0.6-2.4-1.8-3.8-3.5v4.1H56V67.9z M66.5,102.3c0,2.4,0.4,4.1,1.3,5.2c0.9,1.1,2,1.6,3.4,1.6c1.3,0,2.3-0.5,3.2-1.6
			s1.3-2.8,1.3-5.3c0-2.2-0.4-3.8-1.2-4.8c-0.8-1-1.8-1.5-3-1.5c-1.4,0-2.6,0.5-3.5,1.6C67,98.5,66.5,100.1,66.5,102.3z"/>
		<path class="st0" d="M120,67.9v48.3h-9.8v-4.1c-1.4,1.7-2.6,2.9-3.8,3.5c-1.5,0.8-3.2,1.2-5.1,1.2c-3.7,0-6.6-1.4-8.5-4.3
			c-2-2.9-3-6.3-3-10.4c0-4.6,1.1-8.1,3.3-10.5c2.2-2.4,4.9-3.6,8.3-3.6c1.6,0,3.1,0.3,4.4,0.8c1.3,0.6,2.5,1.4,3.5,2.5V67.9H120z
			 M109.5,102.3c0-2.2-0.5-3.8-1.4-4.8c-0.9-1.1-2.1-1.6-3.5-1.6c-1.2,0-2.2,0.5-3.1,1.5c-0.8,1-1.2,2.7-1.2,5.1
			c0,2.3,0.4,3.9,1.3,4.9c0.9,1,1.9,1.6,3.2,1.6c1.3,0,2.5-0.5,3.4-1.6S109.5,104.7,109.5,102.3z"/>
	</g>
</g>
</svg>
