<?xml version="1.0" encoding="utf-8"?>
<!-- Generator: Adobe Illustrator 26.0.3, SVG Export Plug-In . SVG Version: 6.00 Build 0)  -->
<svg version="1.1" id="Layer_1" xmlns="http://www.w3.org/2000/svg" xmlns:xlink="http://www.w3.org/1999/xlink" x="0px" y="0px"
	 viewBox="0 0 120 115.6" style="enable-background:new 0 0 120 115.6;" xml:space="preserve">
<style type="text/css">
	.st0{fill:#FFFFFF;}
</style>
<path class="st0" d="M27.7,23.7l10.5,3.2c-0.7,3-1.8,5.4-3.3,7.4c-1.5,2-3.4,3.5-5.7,4.5c-2.3,1-5.1,1.5-8.6,1.5
	c-4.2,0-7.7-0.6-10.4-1.9c-2.7-1.2-5-3.4-6.9-6.5c-1.9-3.1-2.9-7.1-2.9-11.9c0-6.5,1.7-11.4,5.1-14.9C8.9,1.7,13.7,0,20,0
	c4.9,0,8.8,1,11.6,3s4.9,5,6.3,9.2l-10.6,2.4c-0.4-1.2-0.8-2.1-1.2-2.6c-0.7-0.9-1.5-1.6-2.5-2.1c-1-0.5-2.1-0.7-3.3-0.7
	c-2.7,0-4.8,1.1-6.3,3.3c-1.1,1.6-1.6,4.2-1.6,7.7c0,4.3,0.7,7.3,2,8.9c1.3,1.6,3.2,2.4,5.5,2.4c2.3,0,4-0.6,5.2-1.9
	C26.3,28.1,27.1,26.2,27.7,23.7z"/>
<path class="st0" d="M40.5,0.6h9.4v3.8C51.2,2.8,52.6,1.7,54,1c1.4-0.7,3-1,5-1c2.1,0,3.8,0.4,5,1.1c1.2,0.7,2.2,1.9,3,3.3
	c1.6-1.7,3-2.9,4.3-3.5C72.5,0.3,74.2,0,76.1,0c2.8,0,5,0.8,6.6,2.5c1.6,1.7,2.4,4.3,2.4,7.9v16.5H74.9v-15c0-1.2-0.2-2.1-0.7-2.7
	c-0.7-0.9-1.5-1.4-2.5-1.4c-1.2,0-2.1,0.4-2.9,1.3c-0.7,0.9-1.1,2.2-1.1,4.1v13.6H57.7V12.4c0-1.2-0.1-1.9-0.2-2.4
	c-0.2-0.7-0.6-1.2-1.1-1.6c-0.5-0.4-1.2-0.6-1.9-0.6c-1.2,0-2.1,0.4-2.9,1.3s-1.1,2.3-1.1,4.3v13.4H40.5V0.6z"/>
<path class="st0" d="M91.1,37V0.6h9.4v3.9c1.3-1.6,2.5-2.7,3.6-3.3c1.5-0.8,3.1-1.2,4.9-1.2c3.5,0,6.2,1.3,8.1,4
	c1.9,2.7,2.9,6,2.9,10c0,4.4-1,7.7-3.1,10s-4.7,3.5-7.9,3.5c-1.5,0-3-0.3-4.2-0.8s-2.4-1.3-3.4-2.4V37H91.1z M101.2,13.8
	c0,2.1,0.4,3.6,1.3,4.6c0.9,1,2,1.5,3.3,1.5c1.2,0,2.2-0.5,2.9-1.5c0.8-1,1.2-2.6,1.2-4.9c0-2.1-0.4-3.7-1.2-4.7s-1.8-1.5-3-1.5
	c-1.3,0-2.4,0.5-3.2,1.5S101.2,11.6,101.2,13.8z"/>
<path class="st0" d="M0,37h12.2L28,59.5V37h12.3v40.8H28L12.3,55.3v22.4H0V37z"/>
<path class="st0" d="M48.3,37h11.8v11.2c1.2-0.9,2.5-1.6,4-2.1c1.5-0.5,3.1-0.7,4.9-0.7c3.7,0,6.8,1,9.2,3.1c2.4,2,3.7,5,3.7,8.8
	c0,2.6-0.6,4.8-1.7,6.7c-1.1,1.9-2.7,3.4-4.6,4.4c-2,1-4.1,1.4-6.5,1.4c-2.1,0-3.9-0.3-5.6-1c-1.3-0.5-2.7-1.5-4.2-3v3.5h-11V37z
	 M60,57.5c0,2,0.5,3.5,1.5,4.4c1,0.9,2.2,1.4,3.8,1.4c1.4,0,2.6-0.4,3.5-1.3s1.4-2.4,1.4-4.5c0-1.8-0.5-3.2-1.4-4.1
	c-0.9-0.9-2.1-1.3-3.4-1.3c-1.6,0-2.9,0.5-3.9,1.4S60,55.6,60,57.5z"/>
<path class="st0" d="M120,37v32.3h-11v-3.5c-1.5,1.5-2.9,2.5-4.2,3c-1.7,0.7-3.6,1-5.6,1c-4.2,0-7.3-1.2-9.5-3.6
	c-2.2-2.4-3.3-5.4-3.3-8.8c0-3.9,1.2-6.8,3.6-8.9c2.4-2.1,5.5-3.1,9.2-3.1c1.8,0,3.5,0.2,5,0.7c1.5,0.5,2.8,1.2,4,2.1V37H120z
	 M108.3,57.5c0-1.8-0.5-3.2-1.5-4.1s-2.3-1.4-3.9-1.4c-1.4,0-2.5,0.4-3.4,1.3c-0.9,0.9-1.4,2.3-1.4,4.4c0,1.9,0.5,3.3,1.4,4.2
	c0.9,0.9,2.1,1.3,3.5,1.3c1.5,0,2.7-0.4,3.7-1.3C107.8,60.9,108.3,59.5,108.3,57.5z"/>
<path class="st0" d="M0.2,75.4h25.9c5.6,0,9.9,1.1,12.7,3.2c2.8,2.1,4.2,5.2,4.2,9.1c0,4.1-1.5,7.2-4.6,9.5c-3.1,2.3-7.7,3.4-14,3.4
	h-8.5v14.9H0.2V75.4z M15.8,92.5h3.8c3,0,5.1-0.4,6.3-1.2c1.2-0.8,1.8-1.9,1.8-3.2c0-1.3-0.5-2.3-1.6-3.2c-1.1-0.9-3-1.3-5.9-1.3
	h-4.4V92.5z"/>
<path class="st0" d="M61.8,93.4l-11.6-1.2c0.4-2,1.1-3.6,1.9-4.8s2-2.2,3.6-3c1.1-0.6,2.6-1.1,4.6-1.4c1.9-0.3,4.1-0.5,6.3-0.5
	c3.6,0,6.6,0.2,8.8,0.6s4,1.3,5.5,2.6c1,0.9,1.8,2.2,2.4,3.8s0.9,3.2,0.9,4.7v14c0,1.5,0.1,2.7,0.3,3.5c0.2,0.8,0.6,1.9,1.2,3.2
	H74.3c-0.5-0.8-0.8-1.4-0.9-1.9c-0.1-0.4-0.3-1.1-0.4-2c-1.6,1.5-3.2,2.6-4.7,3.3c-2.1,0.9-4.6,1.3-7.5,1.3c-3.8,0-6.6-0.9-8.6-2.6
	s-2.9-3.9-2.9-6.5c0-2.4,0.7-4.4,2.1-5.9c1.4-1.6,4-2.7,7.8-3.5c4.5-0.9,7.5-1.6,8.9-1.9s2.8-0.9,4.3-1.4c0-1.5-0.3-2.5-0.9-3.1
	c-0.6-0.6-1.7-0.9-3.2-0.9c-2,0-3.5,0.3-4.5,1C62.9,91.1,62.3,92,61.8,93.4z M72.3,99.8c-1.7,0.6-3.4,1.1-5.2,1.6
	c-2.5,0.7-4,1.3-4.7,1.9c-0.7,0.7-1,1.4-1,2.2c0,1,0.3,1.7,1,2.3c0.7,0.6,1.6,0.9,2.9,0.9c1.4,0,2.6-0.3,3.8-1
	c1.2-0.7,2-1.5,2.5-2.4s0.7-2.2,0.7-3.7V99.8z"/>
<path class="st0" d="M113.1,72.5v11.7h6.5v8.6h-6.5v10.9c0,1.3,0.1,2.2,0.4,2.6c0.4,0.7,1.1,1,2,1c0.9,0,2.1-0.3,3.6-0.8l0.9,8.1
	c-2.9,0.6-5.6,1-8.1,1c-2.9,0-5.1-0.4-6.5-1.1c-1.4-0.8-2.4-1.9-3.1-3.4c-0.7-1.5-1-4-1-7.4V92.8H97v-8.6h4.3v-5.6L113.1,72.5z"/>
</svg>
