<?xml version="1.0" encoding="utf-8"?>
<!-- Generator: Adobe Illustrator 26.0.3, SVG Export Plug-In . SVG Version: 6.00 Build 0)  -->
<svg version="1.1" id="Layer_1" xmlns="http://www.w3.org/2000/svg" xmlns:xlink="http://www.w3.org/1999/xlink" x="0px" y="0px"
	 viewBox="0 0 120 114.2" style="enable-background:new 0 0 120 114.2;" xml:space="preserve">
<style type="text/css">
	.st0{fill:#FFFFFF;}
</style>
<g>
	<path class="st0" d="M0,94.1L17.4,93c0.3,2.8,1.1,4.9,2.3,6.3c1.9,2.3,4.6,3.5,8,3.5c2.6,0,4.6-0.6,6-1.8c1.4-1.2,2.1-2.6,2.1-4.2
		c0-1.5-0.7-2.8-2-4s-4.5-2.3-9.4-3.4c-8-1.8-13.7-4.1-17.1-7c-3.5-2.9-5.1-6.7-5.1-11.2c0-3,0.9-5.8,2.7-8.4
		c1.8-2.7,4.5-4.7,7.9-6.3c3.6-1.5,8.4-2.3,14.5-2.3c7.6,0,13.3,1.4,17.3,4.1c4,2.8,6.3,7.1,7,13.2l-17.1,1C34,69.9,33,68,31.5,66.8
		c-1.4-1.2-3.5-1.8-6-1.8c-2.1,0-3.7,0.4-4.8,1.3s-1.6,2-1.6,3.2c0,0.9,0.4,1.8,1.3,2.5c0.9,0.8,2.9,1.5,6.1,2.1
		c8,1.7,13.7,3.4,17.1,5.1c3.5,1.7,6,3.9,7.6,6.4c1.6,2.6,2.3,5.4,2.3,8.6c0,3.7-1,7.2-3.1,10.3c-2.1,3.1-5,5.5-8.8,7.1
		c-3.8,1.6-8.5,2.4-14.3,2.4c-10,0-17-1.9-20.8-5.7S0.6,99.9,0,94.1z"/>
	<path class="st0" d="M96.8,99.7H73.1c0.2,2.1,0.7,3.6,1.5,4.7c1.1,1.5,2.7,2.2,4.5,2.2c1.1,0,2.3-0.3,3.3-1
		c0.6-0.4,1.4-1.1,2.1-2.2l11.7,1.2c-1.8,3.4-3.9,5.8-6.4,7.3c-2.5,1.5-6.1,2.3-10.9,2.3c-4.1,0-7.3-0.6-9.7-1.9
		c-2.3-1.3-4.3-3.3-5.8-6c-1.5-2.7-2.3-6-2.3-9.7c0-5.3,1.5-9.6,4.7-12.8c3.1-3.3,7.4-4.9,12.8-4.9c4.4,0,7.9,0.7,10.5,2.2
		s4.5,3.6,5.9,6.4c1.4,2.8,2,6.4,2,10.9L96.8,99.7L96.8,99.7z M84.7,93.5c-0.2-2.5-0.9-4.3-1.9-5.4c-1-1-2.3-1.6-3.9-1.6
		c-1.9,0-3.4,0.8-4.5,2.4c-0.7,1-1.2,2.6-1.4,4.6H84.7z"/>
	<path class="st0" d="M105.2,47.3H120v66.9h-14.8V47.3z"/>
	<path class="st0" d="M0,0h24.1l9.3,33.9L42.7,0h24.1v55.8h-15V13.2L39.4,58.4l-12.9-2.6L15,13.2v42.5H0V0z"/>
	<path class="st0" d="M79.9,0h13.4v24.4l9.8-11.4h16.2L107,25l13,22.3h-14.8l-6.9-13.7l-4.9,4.8v12.9H79.9V0z"/>
</g>
</svg>
