<?xml version="1.0" encoding="utf-8"?>
<!-- Generator: Adobe Illustrator 26.0.3, SVG Export Plug-In . SVG Version: 6.00 Build 0)  -->
<svg version="1.1" id="Layer_1" xmlns="http://www.w3.org/2000/svg" xmlns:xlink="http://www.w3.org/1999/xlink" x="0px" y="0px"
	 viewBox="0 0 120 115.6" style="enable-background:new 0 0 120 115.6;" xml:space="preserve">
<style type="text/css">
	.st0{fill:#FFFFFF;}
</style>
<path class="st0" d="M0,0h12.2l15.9,32.6V0h12.3v58.9H28.1L12.3,26.6V59H0V0z"/>
<path class="st0" d="M48.4,0h11.9v14.8c1.2-1.2,2.5-2.2,4-2.8s3.1-0.9,4.9-0.9c3.7,0,6.8,1.4,9.3,4.1s3.7,6.6,3.7,11.6
	c0,3.4-0.6,6.3-1.7,8.9s-2.7,4.5-4.6,5.8s-4.2,1.9-6.6,1.9c-2.1,0-3.9-0.4-5.7-1.3c-1.3-0.7-2.7-2-4.2-3.9v4.6h-11
	C48.4,42.8,48.4,0,48.4,0z M60.2,27.1c0,2.7,0.5,4.6,1.5,5.8s2.2,1.8,3.8,1.8c1.4,0,2.6-0.6,3.5-1.8c1-1.2,1.4-3.1,1.4-5.9
	c0-2.4-0.5-4.2-1.4-5.4c-0.9-1.1-2.1-1.7-3.4-1.7c-1.6,0-2.9,0.6-3.9,1.8C60.7,22.9,60.2,24.7,60.2,27.1z"/>
<path class="st0" d="M120,0v42.6h-11V38c-1.5,1.9-2.9,3.2-4.2,3.9c-1.7,0.9-3.6,1.3-5.7,1.3c-4.2,0-7.4-1.6-9.6-4.8
	s-3.3-7.1-3.3-11.7c0-5.1,1.2-9,3.6-11.7s5.5-4.1,9.3-4.1c1.8,0,3.5,0.3,5,0.9c1.5,0.6,2.8,1.6,4,2.8V0H120z M108.2,27.1
	c0-2.4-0.5-4.2-1.5-5.4s-2.3-1.8-3.9-1.8c-1.4,0-2.5,0.6-3.4,1.7S98,24.7,98,27.4c0,2.5,0.5,4.4,1.4,5.5c1,1.2,2.1,1.8,3.5,1.8
	c1.5,0,2.8-0.6,3.8-1.8S108.2,29.8,108.2,27.1z"/>
<path class="st0" d="M27.7,90.5l10.7,4.8c-0.7,4.5-1.8,8.2-3.4,11.2s-3.5,5.3-5.7,6.8s-5.2,2.3-8.7,2.3c-4.3,0-7.8-0.9-10.5-2.8
	s-5.1-5.1-7-9.8S0,92.3,0,85c0-9.7,1.7-17.2,5.2-22.5c3.5-5.2,8.4-7.8,14.7-7.8c5,0,8.9,1.5,11.7,4.5s4.9,7.6,6.3,13.8l-10.8,3.6
	c-0.4-1.8-0.8-3.1-1.2-3.9c-0.7-1.4-1.5-2.5-2.5-3.2s-2.1-1.1-3.3-1.1c-2.8,0-4.9,1.7-6.3,5c-1.1,2.5-1.7,6.3-1.7,11.6
	c0,6.5,0.7,11,2,13.4s3.2,3.6,5.6,3.6c2.3,0,4.1-1,5.3-2.9S27.1,94.2,27.7,90.5z"/>
<path class="st0" d="M67.8,72h6v3.4c0.9-1.4,1.7-2.5,2.6-3.1s1.9-0.9,3.1-0.9c1.4,0,2.3,0.4,3.1,1c0.8,0.7,1.4,1.7,1.9,3
	c1-1.5,1.9-2.5,2.7-3.1c0.9-0.5,1.9-0.8,3.1-0.8c1.8,0,3.2,0.7,4.2,2.2s1.5,3.9,1.5,7v14.6h-6.4V82.1c0-1.1-0.1-1.8-0.4-2.4
	c-0.4-0.8-0.9-1.2-1.6-1.2c-0.8,0-1.4,0.4-1.8,1.1c-0.4,0.8-0.7,2-0.7,3.7v12h-6.4V82.5c0-1.1-0.1-1.8-0.1-2.1
	c-0.1-0.6-0.4-1.1-0.7-1.4c-0.4-0.4-0.7-0.5-1.2-0.5c-0.7,0-1.4,0.4-1.8,1.1c-0.5,0.8-0.7,2-0.7,3.9v11.9h-6.4L67.8,72L67.8,72z"/>
<path class="st0" d="M100.3,115.6V72.4h6.5V77c0.9-2,1.7-3.3,2.4-4c1-0.9,2.1-1.4,3.3-1.4c2.4,0,4.2,1.6,5.6,4.8
	c1.3,3.2,1.9,7.2,1.9,11.9c0,5.2-0.7,9.2-2.2,11.9c-1.4,2.7-3.2,4.2-5.4,4.2c-1.1,0-2-0.3-2.9-0.9c-0.9-0.7-1.7-1.6-2.4-2.8v14.9
	H100.3L100.3,115.6z M107.2,88.1c0,2.5,0.3,4.3,0.9,5.5s1.3,1.8,2.3,1.8c0.8,0,1.5-0.6,2-1.7s0.8-3.1,0.8-5.9c0-2.5-0.3-4.4-0.9-5.6
	c-0.6-1.1-1.3-1.8-2.1-1.8c-0.9,0-1.6,0.6-2.2,1.8S107.2,85.4,107.2,88.1z"/>
<g>
	<path class="st0" d="M37.3,84c0-3.6,1.2-6.6,3.6-8.9c2.4-2.3,5.7-3.5,9.8-3.5c4.7,0,8.3,1.4,10.7,4.1c1.9,2.2,2.9,4.9,2.9,8.2
		c0,3.6-1.2,6.6-3.6,8.9c-2.4,2.3-5.7,3.5-10,3.5c-3.8,0-6.9-1-9.2-2.9C38.7,91,37.3,87.9,37.3,84z M46.3,84c0,2.1,0.4,3.7,1.3,4.7
		c0.9,1,1.9,1.5,3.2,1.5s2.4-0.5,3.2-1.5s1.3-2.6,1.3-4.8c0-2-0.4-3.6-1.3-4.6c-0.8-1-1.9-1.5-3.1-1.5c-1.3,0-2.4,0.5-3.3,1.5
		C46.8,80.4,46.3,81.9,46.3,84z"/>
</g>
</svg>
