<?xml version="1.0" encoding="utf-8"?>
<!-- Generator: Adobe Illustrator 26.0.3, SVG Export Plug-In . SVG Version: 6.00 Build 0)  -->
<svg version="1.1" id="Layer_1" xmlns="http://www.w3.org/2000/svg" xmlns:xlink="http://www.w3.org/1999/xlink" x="0px" y="0px"
	 viewBox="0 0 120 116.8" style="enable-background:new 0 0 120 116.8;" xml:space="preserve">
<style type="text/css">
	.st0{display:none;}
	.st1{fill:#FFFFFF;}
</style>
<circle class="st0" cx="60" cy="26.8" r="100"/>
<g>
	<path class="st1" d="M0,94.9l20.8-1.2c0.4,3,1.4,5.3,2.7,6.8c2.3,2.5,5.4,3.8,9.7,3.8c3.2,0,5.5-0.7,7.2-2c1.6-1.3,2.5-2.8,2.5-4.6
		c0-1.6-0.8-3-2.4-4.3s-5.3-2.5-11.2-3.7c-9.6-2-16.4-4.5-20.4-7.6C4.7,79,2.6,74.9,2.6,70c0-3.3,1.1-6.3,3.2-9.1
		c2.1-2.9,5.2-5.1,9.5-6.8c4.2-1.6,10-2.5,17.4-2.5c9,0,15.9,1.5,20.6,4.5c4.8,3,7.5,7.7,8.5,14.3l-20.5,1.1
		c-0.5-2.8-1.7-4.9-3.5-6.2c-1.7-1.3-4.1-2-7.3-2c-2.5,0-4.5,0.4-5.8,1.4c-1.3,1-2,2.2-2,3.5c0,1,0.5,2,1.6,2.7
		c1,0.9,3.5,1.6,7.3,2.3c9.6,1.8,16.3,3.7,20.4,5.5c4.1,1.8,7.2,4.2,9,7c1.8,2.8,2.8,5.9,2.8,9.3c0,4-1.3,7.8-3.8,11.2
		c-2.5,3.4-6,6-10.5,7.7c-4.5,1.7-10.1,2.6-16.9,2.6c-12,0-20.3-2.1-24.9-6.2S0.7,101.3,0,94.9z"/>
	<path class="st1" d="M120,101.3H88.9c0.3,2.2,0.9,3.9,2,5c1.5,1.6,3.4,2.3,5.9,2.3c1.6,0,3-0.3,4.3-1c0.9-0.4,1.7-1.2,2.7-2.3
		l15.3,1.3c-2.3,3.6-5.2,6.2-8.4,7.8c-3.3,1.6-8,2.4-14.2,2.4c-5.3,0-9.6-0.7-12.7-2.1c-3.1-1.4-5.6-3.5-7.7-6.5
		c-2-2.9-3-6.4-3-10.4c0-5.7,2.1-10.3,6.1-13.7c4-3.5,9.6-5.3,16.8-5.3c5.8,0,10.3,0.8,13.7,2.3c3.4,1.6,5.9,3.9,7.7,6.8
		c1.7,3,2.7,6.9,2.7,11.6V101.3z M104.2,94.7c-0.3-2.7-1.1-4.6-2.4-5.8c-1.3-1.1-3-1.7-5.2-1.7c-2.5,0-4.5,0.9-5.9,2.6
		c-0.9,1.1-1.6,2.8-1.8,4.9H104.2z"/>
	<path class="st1" d="M52.5,0.8h12.2v38H52.5V0.8z"/>
	<path class="st1" d="M73.1,0.8H83v4.9c1.4-2.1,2.9-3.6,4.3-4.4S90.5,0,92.6,0c2.2,0,4,0.5,5.2,1.5c1.3,1,2.3,2.4,3.2,4.3
		c1.6-2.2,3.2-3.7,4.5-4.5c1.4-0.8,3.1-1.2,5.1-1.2c3,0,5.2,1.1,7,3.2c1.6,2.2,2.5,5.6,2.5,10.2v31.9h-10.7V15.4
		c0-1.5-0.3-2.7-0.7-3.4c-0.7-1.2-1.6-1.8-2.6-1.8c-1.3,0-2.3,0.6-3,1.7c-0.7,1.1-1.2,2.9-1.2,5.3v28.1H91.2V16.1
		c0-1.5-0.1-2.5-0.2-3.1c-0.3-0.9-0.6-1.5-1.2-2.1c-0.5-0.5-1.2-0.8-2-0.8c-1.3,0-2.3,0.6-3,1.7c-0.8,1.1-1.2,3-1.2,5.6v27.9H73.1
		C73.1,45.3,73.1,0.8,73.1,0.8z"/>
	<path class="st1" d="M0,39.8l14.6-1.1c0.3,2.8,1,4.9,1.9,6.3c1.6,2.3,3.8,3.5,6.8,3.5c2.2,0,3.9-0.6,5.1-1.8
		c1.2-1.2,1.8-2.6,1.8-4.2c0-1.5-0.6-2.8-1.7-4c-1.2-1.1-3.8-2.3-7.9-3.3c-6.7-1.8-11.5-4.1-14.4-7S1.9,21.5,1.9,17
		c0-3,0.7-5.8,2.2-8.4c1.5-2.7,3.7-4.7,6.7-6.3c3-1.5,7-2.3,12.2-2.3c6.3,0,11.2,1.4,14.5,4.1c3.3,2.8,5.3,7.1,5.9,13.2l-14.4,1
		c-0.4-2.6-1.2-4.5-2.4-5.7c-1.2-1.2-2.9-1.8-5.1-1.8c-1.8,0-3.1,0.4-4,1.3c-0.9,0.9-1.4,2-1.4,3.2c0,0.9,0.4,1.8,1.1,2.5
		c0.7,0.8,2.4,1.5,5.1,2.1c6.7,1.7,11.5,3.4,14.4,5.1c2.9,1.7,5,3.9,6.3,6.4c1.3,2.6,2,5.4,2,8.6c0,3.7-0.9,7.2-2.6,10.3
		s-4.2,5.5-7.4,7.1c-3.2,1.6-7.1,2.4-11.9,2.4c-8.4,0-14.3-1.9-17.5-5.7C2.3,50.5,0.4,45.6,0,39.8z"/>
</g>
</svg>
