<?xml version="1.0" encoding="utf-8"?>
<!-- Generator: Adobe Illustrator 26.0.3, SVG Export Plug-In . SVG Version: 6.00 Build 0)  -->
<svg version="1.1" id="Layer_1" xmlns="http://www.w3.org/2000/svg" xmlns:xlink="http://www.w3.org/1999/xlink" x="0px" y="0px"
	 viewBox="0 0 120 115.6" style="enable-background:new 0 0 120 115.6;" xml:space="preserve">
<style type="text/css">
	.st0{fill:#FFFFFF;}
</style>
<g>
	<path class="st0" d="M0,55.7h36.4c7.9,0,13.9,1.6,17.8,4.7c4,3.1,5.9,7.6,5.9,13.4c0,6-2.2,10.6-6.5,14c-4.3,3.4-10.8,5-19.7,5H22
		v21.9H0V55.7z M22,80.9h5.3c4.2,0,7.2-0.6,8.9-1.8c1.7-1.2,2.6-2.8,2.6-4.7s-0.7-3.4-2.2-4.7c-1.5-1.3-4.3-1.9-8.3-1.9H22V80.9z"/>
	<path class="st0" d="M0,0h12.2l15.9,32.6V0h12.3v58.9H28.1L12.3,26.6v32.4H0V0z"/>
	<path class="st0" d="M48.4,0h11.9v14.8c1.2-1.2,2.5-2.2,4-2.8c1.5-0.6,3.1-0.9,4.9-0.9c3.7,0,6.8,1.4,9.3,4.1s3.7,6.6,3.7,11.6
		c0,3.4-0.6,6.3-1.7,8.9c-1.1,2.6-2.7,4.5-4.6,5.8s-4.2,1.9-6.6,1.9c-2.1,0-3.9-0.4-5.7-1.3c-1.3-0.7-2.7-2-4.2-3.9v4.6h-11V0z
		 M60.2,27.1c0,2.7,0.5,4.6,1.5,5.8c1,1.2,2.2,1.8,3.8,1.8c1.4,0,2.6-0.6,3.5-1.8c1-1.2,1.4-3.1,1.4-5.9c0-2.4-0.5-4.2-1.4-5.4
		c-0.9-1.1-2.1-1.7-3.4-1.7c-1.6,0-2.9,0.6-3.9,1.8C60.7,22.9,60.2,24.7,60.2,27.1z"/>
	<path class="st0" d="M120,0v42.6h-11v-4.6c-1.5,1.9-2.9,3.2-4.2,3.9c-1.7,0.9-3.6,1.3-5.7,1.3c-4.2,0-7.4-1.6-9.6-4.8
		c-2.2-3.2-3.3-7.1-3.3-11.7c0-5.1,1.2-9,3.6-11.7s5.5-4.1,9.3-4.1c1.8,0,3.5,0.3,5,0.9c1.5,0.6,2.8,1.6,4,2.8V0H120z M108.2,27.1
		c0-2.4-0.5-4.2-1.5-5.4c-1-1.2-2.3-1.8-3.9-1.8c-1.4,0-2.5,0.6-3.4,1.7c-0.9,1.1-1.4,3.1-1.4,5.8c0,2.5,0.5,4.4,1.4,5.5
		c1,1.2,2.1,1.8,3.5,1.8c1.5,0,2.8-0.6,3.8-1.8S108.2,29.8,108.2,27.1z"/>
	<path class="st0" d="M109,65.6v13.6h10.3v10H109v12.6c0,1.5,0.2,2.5,0.6,3c0.6,0.8,1.7,1.1,3.2,1.1c1.4,0,3.3-0.3,5.8-0.9l1.4,9.4
		c-4.6,0.7-8.9,1.1-12.9,1.1c-4.6,0-8.1-0.4-10.3-1.3s-3.8-2.2-4.9-4c-1.1-1.8-1.6-4.7-1.6-8.6V89.2h-6.9v-10h6.9v-6.5L109,65.6z"/>
	<g>
		<path class="st0" d="M61.6,97.4l-9.6-1c0.4-1.7,0.9-3,1.6-3.9c0.7-1,1.7-1.8,2.9-2.5c0.9-0.5,2.2-0.9,3.8-1.2s3.3-0.4,5.2-0.4
			c3,0,5.4,0.2,7.2,0.5c1.8,0.3,3.3,1,4.5,2.1c0.9,0.7,1.5,1.8,2,3.1c0.5,1.4,0.7,2.6,0.7,3.9v11.5c0,1.2,0.1,2.2,0.2,2.9
			s0.5,1.6,1,2.7h-9.4c-0.4-0.7-0.6-1.2-0.7-1.5c-0.1-0.4-0.2-0.9-0.3-1.7c-1.3,1.3-2.6,2.2-3.9,2.7c-1.8,0.7-3.8,1.1-6.2,1.1
			c-3.1,0-5.5-0.7-7.1-2.2c-1.6-1.4-2.4-3.2-2.4-5.3c0-2,0.6-3.6,1.7-4.9c1.2-1.3,3.3-2.2,6.4-2.8c3.8-0.8,6.2-1.3,7.3-1.6
			c1.1-0.3,2.3-0.7,3.5-1.2c0-1.2-0.3-2.1-0.8-2.6c-0.5-0.5-1.4-0.7-2.7-0.7c-1.6,0-2.9,0.3-3.7,0.8C62.5,95.5,62,96.2,61.6,97.4z
			 M70.3,102.6c-1.4,0.5-2.8,0.9-4.3,1.3c-2,0.5-3.3,1.1-3.9,1.6c-0.6,0.5-0.8,1.2-0.8,1.8c0,0.8,0.3,1.4,0.8,1.9
			c0.5,0.5,1.4,0.7,2.4,0.7c1.1,0,2.1-0.3,3.1-0.8c1-0.5,1.6-1.2,2-2c0.4-0.8,0.6-1.8,0.6-3V102.6z"/>
	</g>
</g>
</svg>
