<?xml version="1.0" encoding="utf-8"?>
<!-- Generator: Adobe Illustrator 26.0.3, SVG Export Plug-In . SVG Version: 6.00 Build 0)  -->
<svg version="1.1" id="Layer_1" xmlns="http://www.w3.org/2000/svg" xmlns:xlink="http://www.w3.org/1999/xlink" x="0px" y="0px"
	 viewBox="0 0 120 115.6" style="enable-background:new 0 0 120 115.6;" xml:space="preserve">
<style type="text/css">
	.st0{fill:#FFFFFF;}
</style>
<path class="st0" d="M0,0h12.2l15.9,32.6V0h12.3v58.9H28.1L12.3,26.6V59H0V0z"/>
<path class="st0" d="M48.4,0h11.9v14.8c1.2-1.2,2.5-2.2,4-2.8s3.1-0.9,4.9-0.9c3.7,0,6.8,1.4,9.3,4.1s3.7,6.6,3.7,11.6
	c0,3.4-0.6,6.3-1.7,8.9s-2.7,4.5-4.6,5.8s-4.2,1.9-6.6,1.9c-2.1,0-3.9-0.4-5.7-1.3c-1.3-0.7-2.7-2-4.2-3.9v4.6h-11
	C48.4,42.8,48.4,0,48.4,0z M60.2,27.1c0,2.7,0.5,4.6,1.5,5.8s2.2,1.8,3.8,1.8c1.4,0,2.6-0.6,3.5-1.8c1-1.2,1.4-3.1,1.4-5.9
	c0-2.4-0.5-4.2-1.4-5.4c-0.9-1.1-2.1-1.7-3.4-1.7c-1.6,0-2.9,0.6-3.9,1.8C60.7,22.9,60.2,24.7,60.2,27.1z"/>
<path class="st0" d="M120,0v42.6h-11V38c-1.5,1.9-2.9,3.2-4.2,3.9c-1.7,0.9-3.6,1.3-5.7,1.3c-4.2,0-7.4-1.6-9.6-4.8
	s-3.3-7.1-3.3-11.7c0-5.1,1.2-9,3.6-11.7s5.5-4.1,9.3-4.1c1.8,0,3.5,0.3,5,0.9c1.5,0.6,2.8,1.6,4,2.8V0H120z M108.2,27.1
	c0-2.4-0.5-4.2-1.5-5.4s-2.3-1.8-3.9-1.8c-1.4,0-2.5,0.6-3.4,1.7S98,24.7,98,27.4c0,2.5,0.5,4.4,1.4,5.5c1,1.2,2.1,1.8,3.5,1.8
	c1.5,0,2.8-0.6,3.8-1.8S108.2,29.8,108.2,27.1z"/>
<path class="st0" d="M0,58.4h40.4v12.2H14.8v9.1h23v11.7h-23v11.3h25.6v13H0V58.4z"/>
<path class="st0" d="M93.6,59h9.3v28c0.9-1.2,2-2.2,3.1-2.8s2.5-0.9,3.9-0.9c2.9,0,5.3,1.4,7.3,4.1S120,93.9,120,99
	c0,3.4-0.4,6.4-1.3,8.9s-2.1,4.5-3.6,5.8s-3.3,1.9-5.1,1.9c-1.6,0-3.1-0.4-4.4-1.3c-1-0.7-2.1-2-3.3-3.9v4.6h-8.6V59z M102.8,99.3
	c0,2.7,0.4,4.6,1.2,5.8c0.8,1.2,1.8,1.8,3,1.8c1.1,0,2-0.6,2.8-1.8c0.7-1.2,1.1-3.2,1.1-5.9c0-2.4-0.4-4.2-1.1-5.4
	c-0.7-1.1-1.6-1.7-2.7-1.7c-1.3,0-2.3,0.6-3.1,1.8C103.2,95.1,102.8,96.9,102.8,99.3z"/>
<path class="st0" d="M47.5,88.9h8.4v3.9c1.2-1.6,2.4-2.8,3.6-3.5c1.2-0.7,2.7-1,4.4-1c1.9,0,3.3,0.4,4.4,1.1c1.1,0.8,2,1.9,2.7,3.4
	c1.4-1.7,2.7-2.9,3.8-3.5c1.2-0.6,2.6-0.9,4.3-0.9c2.5,0,4.5,0.8,5.9,2.5s2.1,4.4,2.1,8v16.7h-9v-15.2c0-1.2-0.2-2.1-0.6-2.7
	c-0.6-0.9-1.3-1.4-2.2-1.4c-1.1,0-1.9,0.4-2.5,1.3s-1,2.3-1,4.2v13.7h-9v-14.6c0-1.2-0.1-2-0.2-2.4c-0.2-0.7-0.5-1.2-1-1.6
	s-1-0.6-1.7-0.6c-1,0-1.9,0.4-2.5,1.3c-0.7,0.9-1,2.3-1,4.4v13.6h-9L47.5,88.9L47.5,88.9z"/>
</svg>
