<?xml version="1.0" encoding="utf-8"?>
<!-- Generator: Adobe Illustrator 25.2.1, SVG Export Plug-In . SVG Version: 6.00 Build 0)  -->
<svg version="1.1" id="Layer_1" xmlns="http://www.w3.org/2000/svg" xmlns:xlink="http://www.w3.org/1999/xlink" x="0px" y="0px"
	 viewBox="0 0 50 50" style="enable-background:new 0 0 50 50;" xml:space="preserve">
<style type="text/css">
	.st0{fill:#2060FF;}
	.st1{fill:#FFFFFF;}
</style>
<path class="st0" d="M45,50H5c-2.8,0-5-2.2-5-5V5c0-2.8,2.2-5,5-5h40c2.8,0,5,2.2,5,5v40C50,47.8,47.8,50,45,50z"/>
<path class="st1" d="M257.1-281.2"/>
<g>
	<path d="M25,9c8.8,0,16,7.2,16,16s-7.2,16-16,16S9,33.8,9,25S16.2,9,25,9 M25,5C14,5,5,14,5,25s9,20,20,20s20-9,20-20S36,5,25,5
		L25,5z"/>
</g>
<g>
	<g>
		<path d="M25,16.5c4.7,0,8.5,3.8,8.5,8.5s-3.8,8.5-8.5,8.5s-8.5-3.8-8.5-8.5S20.3,16.5,25,16.5 M25,12.5c-6.9,0-12.5,5.6-12.5,12.5
			S18.1,37.5,25,37.5S37.5,31.9,37.5,25S31.9,12.5,25,12.5L25,12.5z"/>
	</g>
</g>
<g>
	<circle cx="25" cy="25" r="3"/>
	<g>
		<path d="M25,24c0.6,0,1,0.5,1,1s-0.5,1-1,1s-1-0.5-1-1S24.4,24,25,24 M25,20c-2.8,0-5,2.2-5,5s2.2,5,5,5s5-2.2,5-5S27.8,20,25,20
			L25,20z"/>
	</g>
</g>
</svg>
