<?xml version="1.0" encoding="utf-8"?>
<!-- Generator: Adobe Illustrator 23.1.1, SVG Export Plug-In . SVG Version: 6.00 Build 0)  -->
<svg version="1.1" id="Layer_1" xmlns="http://www.w3.org/2000/svg" xmlns:xlink="http://www.w3.org/1999/xlink" x="0px" y="0px"
	 viewBox="0 0 1152 162" style="enable-background:new 0 0 1152 162;" xml:space="preserve">
<style type="text/css">
	.st0{fill:#93C90F;}
	.st1{fill:#51585B;}
</style>
<g>
	<path class="st0" d="M764.29,114.59h-22.08l-3.55,10.33h-16.48l22.63-59.45h16.87l22.63,59.45h-16.48L764.29,114.59z
		 M760.19,102.84l-6.94-19.79l-6.94,19.79H760.19z"/>
	<path class="st0" d="M791.1,124.92V65.46h15.45l28.54,36.35V65.46h15.38v59.45H835.1l-28.54-36.35v36.35H791.1z"/>
	<path class="st0" d="M899.52,114.59h-22.08l-3.55,10.33h-16.48l22.63-59.45h16.87l22.63,59.45h-16.48L899.52,114.59z
		 M895.42,102.84l-6.94-19.79l-6.94,19.79H895.42z"/>
	<path class="st0" d="M941.78,65.46v46.37h18.53v13.09h-33.98V65.46H941.78z"/>
	<path class="st0" d="M976.64,96.37l-21.68-30.91h18.45l11.04,16.24l10.96-16.24h18.45l-21.76,30.91v28.54h-15.46V96.37z"/>
	<path class="st0" d="M1048.18,80.68c-1.68-1.37-3.36-2.38-5.05-3.04c-1.68-0.66-3.31-0.99-4.89-0.99c-2,0-3.63,0.47-4.89,1.42
		c-1.26,0.95-1.89,2.18-1.89,3.71c0,1.05,0.32,1.92,0.95,2.6c0.63,0.68,1.46,1.27,2.48,1.77c1.02,0.5,2.18,0.93,3.47,1.3
		c1.29,0.37,2.56,0.76,3.82,1.18c5.05,1.68,8.74,3.93,11.08,6.74c2.34,2.81,3.51,6.48,3.51,11c0,3.05-0.51,5.81-1.54,8.28
		c-1.02,2.47-2.52,4.59-4.49,6.35c-1.97,1.76-4.39,3.13-7.25,4.1c-2.87,0.97-6.11,1.46-9.74,1.46c-7.52,0-14.48-2.23-20.9-6.7
		l6.62-12.46c2.31,2.05,4.6,3.58,6.86,4.57c2.26,1,4.49,1.5,6.7,1.5c2.52,0,4.4-0.58,5.64-1.73c1.23-1.16,1.85-2.47,1.85-3.94
		c0-0.89-0.16-1.67-0.47-2.33s-0.84-1.26-1.58-1.81c-0.74-0.55-1.7-1.06-2.88-1.54c-1.18-0.47-2.62-1-4.3-1.58
		c-2-0.63-3.96-1.33-5.87-2.09c-1.92-0.76-3.63-1.77-5.12-3.04c-1.5-1.26-2.71-2.85-3.63-4.77c-0.92-1.92-1.38-4.35-1.38-7.29
		c0-2.94,0.49-5.61,1.46-8c0.97-2.39,2.34-4.44,4.1-6.15c1.76-1.71,3.92-3.04,6.47-3.98c2.55-0.95,5.4-1.42,8.56-1.42
		c2.94,0,6.02,0.41,9.23,1.22c3.21,0.82,6.28,2.01,9.23,3.59L1048.18,80.68z"/>
	<path class="st0" d="M1081.93,65.46v59.45h-15.45V65.46H1081.93z"/>
	<path class="st0" d="M1126.03,80.68c-1.68-1.37-3.36-2.38-5.05-3.04c-1.68-0.66-3.31-0.99-4.89-0.99c-2,0-3.63,0.47-4.89,1.42
		c-1.26,0.95-1.89,2.18-1.89,3.71c0,1.05,0.32,1.92,0.95,2.6c0.63,0.68,1.46,1.27,2.48,1.77c1.02,0.5,2.18,0.93,3.47,1.3
		c1.29,0.37,2.56,0.76,3.82,1.18c5.05,1.68,8.74,3.93,11.08,6.74c2.34,2.81,3.51,6.48,3.51,11c0,3.05-0.51,5.81-1.54,8.28
		c-1.02,2.47-2.52,4.59-4.49,6.35c-1.97,1.76-4.39,3.13-7.25,4.1c-2.87,0.97-6.11,1.46-9.74,1.46c-7.52,0-14.48-2.23-20.9-6.7
		l6.62-12.46c2.31,2.05,4.6,3.58,6.86,4.57c2.26,1,4.49,1.5,6.7,1.5c2.52,0,4.4-0.58,5.64-1.73c1.23-1.16,1.85-2.47,1.85-3.94
		c0-0.89-0.16-1.67-0.47-2.33s-0.84-1.26-1.58-1.81c-0.74-0.55-1.7-1.06-2.88-1.54c-1.18-0.47-2.62-1-4.3-1.58
		c-2-0.63-3.96-1.33-5.87-2.09c-1.92-0.76-3.63-1.77-5.12-3.04c-1.5-1.26-2.71-2.85-3.63-4.77c-0.92-1.92-1.38-4.35-1.38-7.29
		c0-2.94,0.49-5.61,1.46-8c0.97-2.39,2.34-4.44,4.1-6.15c1.76-1.71,3.92-3.04,6.47-3.98c2.55-0.95,5.4-1.42,8.56-1.42
		c2.94,0,6.02,0.41,9.23,1.22c3.21,0.82,6.28,2.01,9.23,3.59L1126.03,80.68z"/>
</g>
<g>
	<polygon class="st1" points="179.92,124.92 199.09,26.97 230.37,97.78 262.76,26.97 279.99,124.92 265.89,124.92 257.1,69.92 
		230.13,129.11 203.93,69.87 194.14,124.92 	"/>
	<rect x="295" y="33.81" class="st1" width="13.75" height="91.11"/>
	<polygon class="st1" points="328.64,124.92 328.64,27.62 389.84,96.33 389.84,33.81 403.59,33.81 403.59,130.47 342.38,61.9 
		342.38,124.92 	"/>
	<polygon class="st1" points="478.23,46.74 435.94,46.74 435.94,71.58 467.4,71.58 467.4,84.5 435.94,84.5 435.94,112 478.23,112 
		478.23,124.92 422.19,124.92 422.19,33.81 478.23,33.81 	"/>
	<path class="st1" d="M536.22,86.09l28.2,38.83h-16.82l-26.02-37.29h-12.55v37.29h-13.75V33.81h26.18c12.04,0,20.73,2.26,26.08,6.79
		c5.9,5.03,8.85,11.68,8.85,19.94c0,6.45-1.85,12-5.55,16.64C547.16,81.82,542.28,84.79,536.22,86.09 M509.04,75.65h14.44
		c13.02,0,19.53-4.98,19.53-14.93c0-9.32-6.33-13.98-19-13.98h-14.97V75.65z"/>
	<polygon class="st1" points="576.24,33.81 601.44,96.95 626.98,33.81 642.03,33.81 601.14,131.76 561.19,33.81 	"/>
	<path class="st1" d="M689.4,102.79h-39l-10.15,22.13h-14.81l45.08-96.83L714,124.92h-15.05L689.4,102.79z M683.79,89.87
		l-13.51-30.98l-14.16,30.98H683.79z"/>
</g>
<g>
	<path class="st0" d="M162.85,100.96l-25.11-22.52l24.49,3.41l-4.65-14.32l-32.54-3.95l24-22.32l-4.65-14.32l-17.81,17.15
		l7.08-32.97l-29.17,16.92L115.3,5.8h-15.06L86.43,35.52L72.62,5.8H57.56l10.81,22.24L39.19,11.12l7.08,32.97L28.45,26.94
		L23.8,41.26l24,22.32l-32.58,3.96l-4.61,14.32l24.49-3.41L10,100.96l33.55,3.46l-21.82,11.64l12.18,8.85l28.64-15.93l-6.3,32.16
		L68.44,150l4.33-24.35l13.66,30.84l13.66-30.84l4.33,24.35l12.18-8.85l-6.3-32.16l28.64,15.93l12.18-8.85l-21.82-11.64
		L162.85,100.96z M107.3,93.67l-2.25-11.48l-5.34,12.23l-13.28,1.3l10.23,5.69l-10.23,23.41L76.2,101.4l10.23-5.69l-13.28-1.3
		L67.8,82.18l-2.25,11.48l-25.42-2.49l19.1-16.96l8.57,7.97l-2.87-13.03l9.98-8.86v0L63.3,61.7l-5.48-24.95l22.03,12.93l-4.93,10.61
		l0,0l11.51-6.75l11.51,6.75l-4.93-10.61l22.03-12.93l-5.48,24.95l-11.62-1.41l9.98,8.86l-2.87,13.03l8.57-7.97l19.1,16.96
		L107.3,93.67z"/>
	<polygon class="st0" points="74.92,60.29 74.92,60.29 74.92,60.29 	"/>
</g>
</svg>
