<?xml version="1.0" encoding="utf-8"?>
<!-- Generator: Adobe Illustrator 24.3.0, SVG Export Plug-In . SVG Version: 6.00 Build 0)  -->
<svg version="1.1" id="Layer_1" xmlns="http://www.w3.org/2000/svg" xmlns:xlink="http://www.w3.org/1999/xlink" x="0px" y="0px"
	 viewBox="0 0 20 20" style="enable-background:new 0 0 20 20;" xml:space="preserve">
<style type="text/css">
	.st0{fill:#FFFFFF;}
</style>
<g>
	<g>
		<path class="st0" d="M2,19.4c-0.8,0-1.4-0.6-1.4-1.4V2c0-0.8,0.6-1.4,1.4-1.4h16c0.8,0,1.4,0.6,1.4,1.4v16c0,0.8-0.6,1.4-1.4,1.4
			H2z"/>
		<path class="st0" d="M18,1.2c0.4,0,0.8,0.3,0.8,0.8v16c0,0.4-0.3,0.8-0.8,0.8H2c-0.4,0-0.8-0.3-0.8-0.8V2c0-0.4,0.3-0.8,0.8-0.8
			H18 M18,0H2C0.9,0,0,0.9,0,2v16c0,1.1,0.9,2,2,2h16c1.1,0,2-0.9,2-2V2C20,0.9,19.1,0,18,0L18,0z"/>
	</g>
</g>
<polygon points="12.8,10 12.8,0 7.2,0 7.2,10 1,10 10,19 19,10 "/>
</svg>
