<?xml version="1.0" encoding="utf-8"?>
<!-- Generator: Adobe Illustrator 24.3.0, SVG Export Plug-In . SVG Version: 6.00 Build 0)  -->
<svg version="1.1" id="Layer_1" xmlns="http://www.w3.org/2000/svg" xmlns:xlink="http://www.w3.org/1999/xlink" x="0px" y="0px"
	 viewBox="0 0 20 20" style="enable-background:new 0 0 20 20;" xml:space="preserve">
<style type="text/css">
	.st0{fill:#FFFFFF;}
</style>
<g>
	<path class="st0" d="M18,1.2c0.4,0,0.8,0.3,0.8,0.8v16c0,0.4-0.3,0.8-0.8,0.8H2c-0.4,0-0.8-0.3-0.8-0.8V2c0-0.4,0.3-0.8,0.8-0.8H18
		 M18,0H2C0.9,0,0,0.9,0,2v16c0,1.1,0.9,2,2,2h16c1.1,0,2-0.9,2-2V2C20,0.9,19.1,0,18,0L18,0z"/>
</g>
<polygon class="st0" points="16,20 4,20 10,14 "/>
<polygon class="st0" points="0,16 0,4 6,10 "/>
<polygon class="st0" points="4,0 16,0 10,6 "/>
<polygon class="st0" points="20,4 20,16 14,10 "/>
</svg>
